<?xml version="1.0" standalone="no"?>
<!DOCTYPE svg PUBLIC "-//W3C//DTD SVG 20010904//EN"
 "http://www.w3.org/TR/2001/REC-SVG-20010904/DTD/svg10.dtd">
<svg version="1.0" xmlns="http://www.w3.org/2000/svg"
 width="1250.000000pt" height="800.000000pt" viewBox="0 0 1250.000000 800.000000"
 preserveAspectRatio="xMidYMid meet">

<g transform="translate(0.000000,800.000000) scale(0.100000,-0.100000)"
fill="#000000" stroke="none">
<path d="M0 7151 c0 -556 3 -852 10 -856 6 -3 10 0 10 8 0 14 57 44 73 39 5
-1 6 1 3 6 -3 5 4 16 14 25 13 11 20 12 24 4 3 -9 5 -8 5 1 1 7 6 10 12 6 8
-4 8 0 0 15 -9 17 -9 26 4 43 8 13 15 18 15 12 0 -5 -5 -15 -12 -22 -6 -6 -8
-15 -4 -19 4 -4 11 -2 15 6 6 10 10 8 16 -6 7 -17 8 -17 15 2 8 18 9 18 10 -5
1 -14 4 -19 7 -11 10 25 40 49 53 41 9 -6 9 -9 -1 -13 -8 -3 -3 -6 11 -7 14
-1 40 -3 59 -5 19 -1 28 1 22 5 -9 5 -6 9 8 13 11 2 28 -1 38 -9 10 -7 13 -14
6 -14 -6 0 -15 5 -18 11 -5 6 -12 4 -20 -8 -12 -15 -12 -20 2 -30 10 -8 12
-13 5 -13 -7 0 -12 -5 -12 -11 0 -6 8 -8 20 -4 15 5 18 2 15 -15 -2 -11 0 -18
5 -15 14 9 49 -35 43 -53 -4 -9 -2 -13 5 -8 11 7 28 -31 18 -41 -3 -4 -1 -12
5 -19 14 -17 21 -114 9 -114 -6 0 -10 -7 -10 -16 0 -8 3 -13 7 -11 5 3 7 -11
7 -31 -1 -29 -5 -36 -18 -34 -9 2 -15 -1 -14 -5 2 -4 0 -9 -4 -10 -18 -6 -28
-2 -28 12 0 11 -8 13 -32 8 -18 -3 -36 -11 -40 -17 -5 -7 -8 -7 -8 2 0 10 -5
10 -21 1 -16 -8 -20 -8 -14 1 4 7 -7 5 -30 -4 -21 -9 -45 -16 -55 -16 -9 0
-25 -9 -35 -20 -9 -10 -20 -18 -24 -17 -15 4 -99 -92 -107 -123 0 -3 -6 -17
-12 -31 -11 -27 -32 -126 -36 -166 -1 -12 -5 -25 -9 -29 -4 -4 -7 -602 -7
-1330 l0 -1322 72 19 c40 10 127 22 193 26 66 4 110 9 97 12 -33 8 -32 23 2
41 16 8 41 27 56 43 15 15 31 27 36 27 5 0 21 12 36 28 14 15 40 38 58 52 52
40 84 70 74 70 -5 1 6 7 24 15 18 8 35 21 38 30 3 8 11 15 18 15 6 0 28 16 50
35 21 19 45 35 54 35 18 0 171 96 190 118 10 13 12 13 12 2 0 -10 5 -8 14 5 8
11 36 31 63 45 26 14 52 30 58 36 15 16 75 56 75 50 0 -3 19 12 42 34 24 22
49 40 55 40 7 0 13 5 13 10 0 6 5 10 10 10 6 0 26 15 44 33 18 17 39 33 47 35
8 2 19 10 25 18 6 7 15 14 20 14 5 0 17 8 26 18 26 28 63 59 68 59 6 -1 54 39
81 67 11 11 19 16 19 12 0 -4 11 5 25 20 14 15 25 23 25 19 0 -4 14 6 30 24
17 17 35 31 41 31 16 0 39 26 31 35 -4 5 -2 5 5 1 6 -3 15 -1 18 5 4 5 13 8
21 5 8 -3 14 1 14 8 0 14 47 39 59 31 4 -2 17 5 29 15 12 11 27 20 34 20 9 0
9 3 -2 11 -12 8 -9 10 12 6 16 -2 25 0 21 6 -3 5 0 8 8 5 7 -2 22 5 32 16 10
12 15 15 12 8 -6 -11 -3 -11 14 0 12 7 21 20 21 28 0 9 4 20 9 25 5 6 23 65
40 132 52 204 95 296 162 345 153 111 223 156 312 202 120 62 361 205 399 238
15 12 23 25 19 28 -5 3 -8 26 -7 53 1 26 -3 47 -8 47 -4 0 -3 7 4 15 10 12 10
15 0 15 -10 0 -10 3 -1 14 9 11 9 15 -1 18 -10 4 -10 8 1 21 10 13 10 17 1 17
-10 0 -10 3 0 15 7 8 8 15 3 15 -6 0 -10 24 -11 53 0 28 -3 75 -5 102 -3 28
-6 56 -6 63 -1 8 -6 10 -13 6 -9 -5 -9 -2 1 9 11 14 11 17 -1 17 -14 0 -48 34
-48 49 0 5 -7 14 -15 21 -8 7 -12 16 -9 21 3 5 1 17 -5 26 -6 12 -5 26 5 45 8
15 13 31 12 36 -4 12 25 82 34 82 4 0 8 7 8 15 0 8 6 12 14 9 11 -4 14 1 12
20 -2 15 1 29 6 32 5 3 4 11 -2 19 -8 10 -7 16 7 24 17 10 17 10 -2 11 -19 1
-18 2 5 22 14 12 18 19 8 15 -27 -9 -31 6 -6 25 15 12 17 16 6 12 -21 -7 -24
6 -6 24 9 9 8 12 -8 12 -17 1 -17 3 6 22 14 12 18 19 8 15 -26 -9 -29 4 -5 24
l22 18 -25 -5 -25 -6 24 21 23 21 -23 0 -24 0 25 21 c24 20 24 20 3 14 -27 -8
-31 10 -5 24 16 10 16 10 0 11 -10 0 -18 3 -18 6 0 4 8 13 18 20 16 13 16 14
0 8 -20 -7 -25 11 -7 22 8 4 7 9 -2 14 -10 7 -10 11 0 24 10 12 11 16 1 16 -7
0 -10 6 -7 14 3 8 3 17 -1 20 -3 4 -7 21 -7 39 -1 18 -7 48 -14 68 -13 41 -19
89 -26 204 -2 44 -7 121 -11 170 -12 142 -8 311 7 321 5 3 9 13 9 22 0 10 14
32 30 50 17 18 30 39 30 45 0 7 10 13 22 14 11 1 25 8 29 15 5 7 9 9 9 3 0 -5
7 -2 15 9 8 10 20 16 28 13 8 -3 20 0 26 6 8 8 11 7 11 -6 0 -10 5 -14 15 -11
9 4 15 0 15 -7 0 -11 3 -11 10 1 5 8 10 12 11 8 1 -5 2 -11 3 -15 1 -5 7 -17
13 -28 12 -19 12 -19 13 3 0 13 -4 20 -10 17 -6 -3 -7 1 -4 9 4 9 -1 18 -10
22 -9 3 -16 16 -15 28 0 21 0 21 9 -1 5 -13 14 -23 20 -23 5 0 10 -6 10 -14 0
-8 8 -13 18 -11 9 1 12 0 5 -2 -14 -5 -21 -89 -9 -111 6 -9 11 -24 12 -32 3
-19 7 -34 24 -90 8 -25 15 -52 16 -61 0 -9 14 -39 29 -68 20 -36 36 -53 54
-57 54 -12 91 -26 91 -34 0 -5 12 -3 27 5 15 8 30 12 35 9 4 -3 5 -33 2 -67
-3 -34 -7 -77 -8 -94 0 -18 -4 -33 -8 -33 -14 0 -8 -16 13 -41 18 -21 21 -33
17 -100 -5 -81 -14 -111 -29 -88 -5 9 -10 4 -15 -17 -4 -16 -14 -39 -22 -51
-8 -13 -11 -23 -8 -23 4 0 0 -10 -8 -22 -8 -13 -18 -42 -22 -65 -4 -26 -12
-43 -20 -43 -11 0 -13 -31 -8 -172 9 -294 13 -408 20 -548 3 -74 7 -180 8
-235 4 -126 4 -125 17 -125 18 0 101 -41 199 -98 245 -142 347 -252 369 -399
6 -39 24 -107 40 -151 29 -78 31 -122 7 -122 -7 0 -22 -13 -34 -30 -25 -33
-46 -37 -87 -16 -15 8 -40 12 -56 9 -23 -3 -37 2 -56 21 -14 14 -30 26 -35 26
-5 0 -6 5 -3 10 3 6 1 10 -4 10 -6 0 -11 17 -11 39 0 21 -7 55 -15 75 -8 20
-14 37 -14 38 1 2 -4 21 -11 42 -9 27 -10 65 -6 122 l7 83 -45 -25 c-35 -19
-53 -24 -78 -18 -73 15 -123 15 -142 1 -18 -13 -19 -29 -20 -213 l-1 -199 -28
-3 c-24 -3 -27 -7 -27 -42 0 -35 3 -39 28 -42 22 -2 28 -9 30 -32 8 -72 -3
-89 -84 -126 -63 -29 -170 -96 -208 -131 -5 -5 -4 -14 3 -23 11 -13 20 -10 64
22 29 20 66 51 83 69 38 39 66 42 88 8 9 -14 23 -25 30 -25 15 0 29 -52 20
-75 -4 -8 -15 -15 -25 -15 -11 0 -24 -11 -31 -25 -6 -14 -31 -37 -55 -51 -52
-30 -51 -48 3 -51 21 -1 74 -7 117 -14 66 -11 94 -11 200 4 116 16 235 46 267
67 13 8 13 15 -2 56 l-17 47 82 -8 c115 -10 116 -10 177 19 59 28 169 92 184
106 5 5 -1 29 -14 56 -26 57 -33 142 -12 163 11 12 23 12 60 3 26 -6 72 -14
102 -17 30 -4 79 -13 108 -21 l53 -15 68 70 c39 41 87 79 112 90 44 20 231 61
274 61 13 0 26 4 30 9 11 18 92 23 171 10 43 -7 88 -13 100 -13 11 -1 28 -7
37 -15 10 -7 17 -10 17 -5 0 5 5 1 11 -8 5 -10 16 -18 23 -18 16 0 34 -35 41
-80 4 -25 3 -31 -4 -20 -8 11 -13 12 -21 4 -8 -8 -7 -15 3 -25 8 -8 19 -24 26
-36 9 -19 8 -24 -8 -33 -11 -5 -29 -10 -40 -10 -11 0 -30 -14 -43 -30 -12 -17
-27 -29 -32 -27 -6 2 -17 -3 -25 -10 -17 -17 -28 -7 -35 29 -14 81 -67 103
-233 95 -75 -3 -136 -11 -166 -22 -41 -15 -59 -16 -110 -7 -38 6 -66 6 -73 1
-7 -6 -16 -8 -20 -7 -13 4 -55 -28 -48 -35 4 -3 -1 -13 -10 -22 -20 -20 -12
-35 17 -35 33 -1 147 -54 189 -89 63 -53 84 -165 34 -184 -9 -4 -16 -13 -16
-21 0 -36 -91 -74 -103 -43 -4 7 -6 6 -6 -5 -1 -13 -8 -16 -33 -12 -48 6 -67
-4 -82 -41 -14 -33 -16 -34 -48 -24 -69 21 -75 20 -112 -17 -20 -20 -36 -33
-36 -29 0 3 -7 -1 -16 -9 -14 -15 -36 -21 -58 -17 -4 1 -19 -11 -31 -25 -43
-51 -60 -43 -94 44 l-31 77 6 -55 c3 -30 7 -60 9 -67 2 -7 -3 -19 -12 -28 -14
-14 -16 -14 -28 2 -13 17 -14 17 -29 -2 l-15 -20 -15 20 c-15 20 -15 19 -16
-6 0 -34 -23 -43 -46 -18 -21 23 -38 25 -30 3 16 -41 19 -67 7 -60 -7 4 -18 2
-26 -4 -8 -6 -19 -9 -25 -5 -5 3 -10 2 -10 -3 0 -5 -8 -13 -17 -16 -34 -13
-82 -43 -77 -48 2 -3 -7 -4 -21 -3 -14 2 -25 -1 -25 -6 0 -4 -7 -6 -15 -3 -8
4 -15 1 -15 -5 0 -6 -7 -11 -15 -11 -9 0 -18 -7 -21 -15 -4 -8 -10 -12 -15 -9
-5 3 -9 0 -9 -6 0 -7 -6 -8 -19 0 -14 7 -21 6 -24 -3 -3 -9 -7 -9 -20 2 -10 8
-17 9 -17 3 0 -6 8 -16 18 -22 15 -10 15 -10 -3 -8 -12 2 -31 -7 -44 -19 -23
-21 -64 -25 -92 -8 -8 6 -8 2 0 -14 11 -19 9 -21 -14 -21 -14 0 -25 -4 -25 -9
0 -5 -9 -7 -20 -4 -11 3 -18 9 -15 13 3 5 -5 6 -16 3 -21 -6 -21 -7 5 -20 14
-7 26 -16 26 -19 0 -3 -4 -2 -10 1 -6 3 -10 1 -10 -4 0 -6 8 -11 18 -11 16 -1
16 -1 0 -10 -11 -7 -26 -7 -43 0 -35 13 -48 13 -39 -2 5 -8 0 -9 -15 -5 -18 4
-20 3 -10 -9 9 -11 9 -14 -2 -10 -8 2 -27 7 -42 10 -26 6 -27 5 -17 -14 9 -17
8 -20 -10 -20 -11 0 -20 -4 -20 -10 0 -5 5 -10 10 -10 6 0 10 -5 10 -11 0 -6
-10 -8 -22 -5 -13 3 -17 3 -10 0 22 -10 13 -26 -13 -22 -28 6 -32 -1 -12 -21
10 -11 8 -12 -12 -6 -19 6 -23 4 -18 -7 4 -12 -2 -14 -26 -12 l-32 4 30 -24
c16 -13 45 -29 65 -36 19 -7 44 -19 55 -27 18 -14 13 -15 -55 -10 -41 3 -84 8
-95 12 -14 4 -12 2 5 -9 l25 -15 -35 -1 c-26 0 -31 -3 -20 -10 8 -5 12 -10 8
-11 -5 -1 -12 -3 -18 -4 -5 -1 -25 -3 -42 -4 l-33 -2 25 -14 c14 -8 50 -24 80
-36 82 -33 84 -41 10 -36 -45 3 -68 0 -78 -10 -7 -7 -28 -13 -46 -13 -34 0
-81 -31 -68 -45 4 -4 -3 -2 -15 4 -15 8 -23 8 -23 1 0 -5 -7 -10 -16 -10 -8 0
-13 -4 -10 -9 6 -10 -71 -24 -84 -16 -6 3 -20 -4 -32 -15 -17 -16 -31 -20 -56
-16 -26 4 -33 2 -28 -9 3 -10 0 -12 -11 -8 -12 5 -14 3 -8 -7 5 -8 4 -11 -3
-6 -6 3 -13 2 -17 -4 -3 -5 -15 -10 -26 -10 -10 0 -19 -4 -19 -10 0 -5 -9 -10
-19 -10 -11 0 -23 -5 -26 -11 -4 -6 -14 -8 -24 -5 -14 5 -14 4 1 -7 20 -16 14
-29 -10 -20 -10 4 -13 2 -8 -5 4 -7 2 -12 -3 -12 -6 0 -11 4 -11 10 0 6 -9 6
-22 1 -13 -5 -22 -14 -21 -20 2 -6 0 -11 -5 -12 -4 0 -17 -2 -29 -5 -14 -2
-23 1 -23 8 0 9 -3 9 -11 1 -6 -6 -18 -9 -27 -5 -11 4 -14 1 -9 -12 4 -10 2
-16 -6 -15 -36 4 -63 -17 -58 -45 1 -4 -10 -5 -25 -2 -21 6 -25 4 -21 -8 4
-10 0 -14 -14 -11 -11 2 -17 0 -14 -6 4 -5 1 -9 -5 -9 -6 0 -8 -4 -5 -10 3 -5
0 -10 -7 -11 -7 0 -25 -2 -40 -3 -14 -1 -24 2 -22 6 3 4 -1 8 -8 8 -16 0 -47
-19 -33 -20 6 0 2 -5 -8 -11 -9 -6 -15 -14 -12 -20 4 -5 -2 -9 -12 -10 -16 0
-16 -1 2 -9 l20 -9 -20 -1 -20 -1 20 -9 c18 -7 17 -8 -10 -15 -50 -11 -56 -14
-50 -25 3 -5 1 -10 -5 -10 -7 0 -10 7 -6 15 6 16 -3 19 -28 9 -9 -3 -14 -9
-12 -13 2 -3 -16 -7 -41 -7 -26 -1 -50 -8 -55 -15 -7 -10 -11 -11 -14 -2 -7
16 -64 -4 -58 -21 3 -7 -4 -12 -16 -12 -11 0 -20 4 -20 8 0 4 -15 6 -32 4 -18
-2 -40 0 -49 4 -10 6 -26 2 -47 -10 -22 -14 -32 -16 -36 -7 -3 8 -9 6 -19 -6
-11 -14 -16 -15 -20 -5 -4 8 -6 7 -6 -4 -1 -11 -9 -18 -21 -18 -31 0 -33 -1
-61 -21 -14 -10 -29 -16 -33 -12 -3 3 -6 1 -6 -5 0 -7 -7 -12 -15 -12 -8 0
-15 7 -15 16 0 12 -3 14 -13 6 -8 -7 -24 -6 -51 3 -22 8 -44 11 -49 8 -6 -3
-7 -1 -4 4 4 6 0 16 -8 23 -13 11 -14 10 -9 -4 3 -9 1 -16 -5 -16 -6 0 -11 4
-11 9 0 5 -9 11 -20 14 -11 3 -20 1 -20 -4 0 -5 -7 -9 -15 -9 -8 0 -15 -9 -15
-20 0 -17 -3 -19 -19 -10 -13 6 -28 7 -44 1 -14 -6 -27 -8 -28 -6 -2 2 -22 6
-44 9 -22 4 -41 11 -43 16 -2 6 -15 10 -28 10 -14 0 -23 -4 -20 -8 2 -4 -8 -8
-22 -7 -16 0 -26 -5 -25 -12 2 -7 -5 -13 -15 -14 -10 0 -12 -3 -4 -6 6 -2 12
-9 12 -14 0 -4 -6 -6 -14 -3 -8 3 -23 1 -34 -5 -15 -8 -22 -8 -25 2 -4 8 -6 7
-6 -3 -1 -21 -40 -53 -57 -46 -8 3 -14 1 -14 -5 0 -6 -14 -9 -35 -6 -22 3 -33
1 -29 -5 4 -6 1 -8 -7 -6 -18 7 -51 -10 -44 -23 4 -5 -3 -9 -14 -9 -12 0 -21
7 -21 15 0 8 -4 15 -10 15 -5 0 -10 -7 -10 -15 0 -8 -4 -15 -10 -15 -5 0 -10
5 -10 11 0 6 -9 1 -21 -12 -11 -13 -18 -18 -14 -12 4 9 1 11 -9 7 -9 -3 -13
-11 -9 -17 3 -6 1 -7 -5 -3 -6 4 -20 2 -31 -4 -16 -8 -20 -6 -24 8 -3 13 -6
10 -11 -11 -5 -15 -12 -27 -18 -27 -5 0 -6 5 -3 10 12 20 -35 10 -71 -15 -22
-15 -41 -22 -47 -16 -5 5 -36 2 -76 -9 -36 -9 -75 -16 -85 -14 -11 1 -20 -5
-23 -16 -3 -12 -11 -16 -24 -13 -11 3 -19 0 -19 -6 0 -7 -4 -9 -10 -6 -5 3
-10 2 -10 -3 0 -5 -10 -8 -23 -8 -12 1 -31 -5 -41 -13 -13 -11 -20 -12 -23 -5
-3 8 -15 9 -38 4 -23 -5 -36 -4 -39 4 -2 6 -5 -249 -5 -566 l-1 -578 28 11
c15 6 113 40 217 76 105 36 285 99 400 140 116 42 269 95 340 119 177 58 418
149 610 230 88 37 207 86 265 109 58 24 175 73 260 110 175 76 355 135 415
135 71 1 173 28 244 65 140 74 241 204 310 399 33 94 41 108 76 131 92 62 275
261 374 408 29 43 66 86 82 95 16 9 57 33 91 52 117 67 188 156 234 296 23 71
33 90 58 105 53 33 167 76 310 119 156 47 181 57 359 143 l129 62 24 -28 c26
-31 31 -65 12 -89 -7 -9 -47 -32 -88 -52 -70 -34 -262 -169 -320 -226 -14 -14
-41 -39 -60 -56 -38 -34 -100 -101 -100 -108 0 -3 -30 -53 -68 -111 -37 -59
-86 -137 -109 -173 -24 -39 -100 -126 -181 -207 -76 -77 -159 -167 -183 -200
-59 -81 -127 -202 -139 -247 -6 -20 -16 -43 -23 -50 -7 -7 -30 -42 -52 -78
-94 -158 -156 -241 -248 -332 -111 -111 -126 -117 -184 -65 -54 48 -77 39
-122 -45 -20 -36 -60 -101 -88 -143 -55 -81 -66 -122 -37 -146 22 -18 44 -64
44 -92 0 -13 -11 -56 -25 -95 -40 -115 -32 -132 27 -54 20 26 45 57 55 68 10
12 36 43 58 70 22 26 58 68 81 93 22 25 64 80 94 121 30 41 60 80 66 85 6 6
28 42 49 80 34 65 100 156 117 163 4 2 26 39 50 83 23 44 66 110 95 147 29 37
64 87 78 112 37 68 120 183 135 188 10 4 11 -3 7 -26 -4 -22 -1 -36 13 -52 11
-12 21 -30 24 -39 7 -25 25 -113 30 -144 3 -16 22 -51 43 -79 21 -27 37 -54
35 -59 -1 -5 5 -9 14 -9 14 0 14 -2 0 -15 -8 -8 -20 -15 -26 -15 -7 0 -10 -8
-8 -17 4 -14 -2 -18 -24 -20 -15 -1 -28 2 -28 7 0 6 -8 10 -17 10 -16 0 -16
-2 -3 -11 12 -9 11 -9 -5 -4 -28 10 -54 8 -71 -6 -19 -16 -18 -27 6 -34 29 -9
29 -81 0 -90 -11 -3 -25 -15 -31 -26 -5 -11 -14 -17 -19 -14 -6 3 -7 0 -4 -8
6 -17 -50 -29 -65 -14 -6 6 -13 2 -20 -10 -8 -16 -6 -24 7 -39 21 -24 29 -59
10 -48 -10 6 -10 4 1 -9 11 -14 11 -17 -1 -17 -7 0 -22 -14 -32 -31 -10 -16
-33 -38 -52 -47 -28 -13 -35 -22 -33 -42 1 -14 -1 -32 -4 -40 -4 -8 -9 -26
-11 -40 -2 -14 -9 -24 -15 -22 -10 2 -15 -10 -13 -29 1 -4 -12 -9 -28 -13 -47
-9 -51 -49 -9 -87 18 -16 38 -29 45 -29 7 0 11 -8 9 -17 -4 -27 5 -35 23 -21
15 12 16 11 3 -4 -10 -14 -18 -15 -35 -7 -19 9 -19 9 -4 -4 12 -9 14 -17 8
-25 -7 -9 -7 -9 2 -2 16 13 38 13 38 -1 0 -5 -4 -7 -10 -4 -5 3 -10 -1 -10 -9
0 -9 -7 -16 -16 -16 -9 0 -18 -9 -21 -20 -3 -12 -10 -17 -17 -13 -6 4 -15 8
-21 8 -5 0 -36 13 -68 29 -33 15 -60 26 -61 24 -1 -2 -8 -11 -15 -20 -11 -15
-10 -21 6 -40 10 -13 25 -23 33 -23 25 1 62 -44 54 -67 -4 -13 -2 -18 4 -14 6
3 12 3 15 -1 2 -5 2 -2 1 5 -4 16 29 15 71 -2 19 -8 35 -13 35 -10 0 3 7 -1
15 -10 8 -8 15 -22 15 -31 0 -18 -81 -148 -99 -159 -27 -17 -9 -47 58 -93 39
-26 114 -79 168 -117 54 -38 122 -83 153 -99 53 -29 300 -186 310 -197 18 -21
70 -49 74 -41 4 6 29 0 61 -14 63 -28 77 -26 100 18 9 18 23 44 31 60 18 33
10 67 -17 67 -26 0 -24 18 6 63 31 45 71 51 81 13 8 -34 29 -23 56 30 12 24
27 44 34 44 6 0 15 15 18 33 4 19 26 65 50 103 65 101 98 220 102 361 1 61 -1
128 -6 150 -5 21 -11 52 -13 68 -22 137 -29 171 -40 189 -6 12 -12 23 -12 26
-4 22 -18 50 -26 50 -5 0 -9 9 -9 20 0 11 -6 20 -14 20 -7 0 -16 10 -20 23
l-6 22 -13 -26 c-8 -14 -17 -37 -21 -52 -3 -15 -11 -27 -16 -27 -6 0 -10 -8
-10 -17 0 -10 -9 -29 -20 -43 -11 -14 -20 -30 -20 -35 0 -6 -16 -34 -35 -64
-19 -29 -35 -60 -35 -70 0 -9 -8 -33 -19 -53 -11 -22 -14 -39 -8 -41 5 -1 2
-10 -7 -19 -9 -9 -16 -21 -16 -26 0 -6 -7 -23 -14 -39 -19 -35 -30 -65 -31
-80 0 -6 -11 -23 -24 -37 -14 -14 -19 -26 -12 -26 20 0 -7 -38 -39 -55 -17 -9
-30 -21 -30 -27 0 -6 9 -3 20 7 11 10 20 14 20 9 0 -5 -19 -26 -42 -47 -24
-21 -35 -36 -25 -33 28 9 20 -8 -10 -21 -17 -7 -55 -10 -92 -8 -35 2 -72 0
-82 -5 -13 -8 -30 -3 -68 22 -28 17 -53 29 -54 27 -2 -2 -14 -22 -27 -44 -40
-67 -113 -145 -136 -145 -31 0 -74 38 -74 65 0 13 24 60 54 104 30 44 57 89
60 99 7 21 -27 56 -89 91 -22 13 -43 29 -48 36 -5 9 -19 12 -41 8 -29 -5 -37
-1 -57 26 -12 17 -30 31 -38 32 -9 0 -11 3 -5 5 7 3 10 14 7 24 -8 30 16 24
28 -6 5 -15 11 -25 12 -23 2 2 9 13 17 23 13 18 13 19 -2 14 -9 -4 -19 -1 -22
7 -4 11 4 13 35 9 24 -3 39 -1 39 6 0 6 -4 8 -10 5 -5 -3 -10 -2 -10 4 0 6 -7
8 -15 5 -8 -4 -15 -1 -15 6 0 6 5 8 10 5 6 -3 13 1 16 9 3 9 10 13 15 10 5 -3
6 -10 3 -16 -4 -7 -2 -8 5 -4 6 4 9 12 6 17 -4 5 1 9 10 9 9 0 13 -5 10 -10
-3 -6 3 -10 15 -10 11 0 23 -7 26 -15 8 -19 27 4 74 89 19 32 43 69 54 82 12
12 35 49 51 81 17 32 35 63 41 68 18 16 89 127 105 163 8 17 17 32 21 32 5 0
8 4 8 9 0 14 -39 9 -44 -6 -3 -7 -12 -10 -21 -7 -13 5 -13 9 5 24 11 9 20 22
20 29 0 6 7 11 15 11 8 0 15 4 15 10 0 5 6 7 14 4 8 -3 12 -14 9 -27 -3 -13 8
-2 26 25 18 27 29 53 25 59 -4 7 -3 9 2 6 11 -6 10 -8 169 243 120 188 136
213 215 341 34 54 59 81 99 107 55 35 131 104 131 118 0 4 -10 -2 -23 -14 -42
-40 -51 -23 -12 22 26 31 31 46 15 46 -19 0 -10 31 20 69 30 37 31 40 24 112
-3 41 -8 77 -10 81 -10 16 -3 450 7 500 15 69 41 120 90 173 80 87 173 95 307
28 l75 -37 33 38 c28 32 37 37 60 32 14 -4 32 -2 39 4 7 6 38 9 68 7 49 -3 59
0 77 20 11 13 26 20 35 17 8 -4 15 -2 15 2 0 5 31 42 70 83 57 61 75 74 102
75 68 4 196 54 180 71 -4 5 1 5 11 2 10 -4 16 -3 13 2 -5 7 86 54 100 51 4 -1
10 2 13 7 3 4 13 14 22 21 15 11 16 8 9 -28 -4 -22 -13 -46 -20 -55 -21 -25 2
-17 32 12 15 15 28 36 28 47 1 20 1 20 12 2 8 -14 8 -24 -1 -38 -8 -13 -8 -24
-2 -37 6 -10 8 -20 6 -23 -2 -2 5 -32 15 -67 22 -69 26 -112 8 -73 -17 34 -25
27 -31 -30 -6 -46 -3 -56 18 -82 66 -81 80 -109 79 -157 -1 -25 -11 -68 -23
-94 -26 -59 -26 -65 -1 -65 11 0 20 -3 20 -6 0 -10 -73 -127 -90 -145 -8 -9
-23 -27 -34 -39 -12 -15 -20 -19 -25 -11 -8 12 -68 5 -77 -10 -3 -5 -15 -9
-27 -9 -12 0 -40 -7 -62 -14 -47 -17 -119 -22 -157 -11 -41 11 -53 -3 -28 -30
l22 -23 -37 -59 c-43 -67 -74 -99 -110 -113 -14 -5 -25 -16 -25 -25 0 -19 78
-105 96 -105 7 0 29 -10 49 -21 51 -31 131 -22 260 29 55 22 135 48 177 58 64
14 86 25 127 61 27 24 73 55 103 70 50 26 53 31 56 69 4 55 -17 73 -52 47 -14
-10 -26 -23 -26 -29 0 -7 -8 -15 -17 -18 -12 -5 -13 -10 -5 -18 8 -8 7 -15 -6
-25 -16 -14 -16 -14 1 -9 12 4 17 2 14 -6 -3 -11 -28 -14 -72 -9 -5 1 -3 6 5
11 10 6 11 10 3 10 -7 0 -13 9 -13 20 0 11 -6 23 -12 25 -12 5 -21 51 -20 100
0 37 19 93 42 125 17 24 20 34 10 40 -21 13 5 20 107 30 54 5 131 16 172 26
62 14 86 15 151 6 43 -6 102 -22 131 -35 73 -33 287 -203 432 -344 144 -138
173 -189 164 -287 -2 -33 -3 -67 0 -73 7 -19 54 -16 88 6 17 10 44 21 60 24
17 3 67 12 113 21 74 14 87 14 112 1 41 -21 118 -19 165 5 34 17 51 19 112 14
l72 -7 42 37 c24 20 52 36 65 36 22 0 40 16 59 54 6 11 27 26 48 33 55 18 87
42 93 72 4 14 12 33 19 41 7 8 18 33 25 55 7 22 19 51 28 65 12 19 16 51 16
135 0 101 -2 114 -27 155 -15 25 -27 55 -27 68 0 30 46 139 76 179 13 17 24
41 24 52 0 11 7 26 15 34 8 8 11 17 8 21 -4 3 -1 6 6 6 7 0 10 4 6 9 -3 6 1
13 8 18 21 12 41 55 38 80 -1 11 3 24 10 29 8 4 9 3 5 -4 -4 -7 -2 -12 3 -12
6 0 11 9 11 20 0 11 5 20 10 20 6 0 10 -5 10 -11 0 -5 4 -8 10 -4 5 3 6 13 3
22 -5 13 -2 15 13 9 15 -6 16 -4 7 5 -15 15 11 44 33 35 9 -4 12 -2 8 5 -4 6
0 15 7 20 10 6 10 9 2 9 -7 0 -10 6 -7 14 3 8 15 12 27 10 16 -3 14 0 -8 11
-27 14 -27 15 -5 11 21 -4 25 -1 26 19 1 14 -1 23 -5 20 -4 -2 -8 2 -8 10 0 8
5 11 10 8 6 -4 8 0 4 10 -3 9 -1 18 6 21 9 3 9 7 1 13 -13 10 -14 43 -1 40 5
-1 12 4 15 12 3 10 0 11 -9 5 -12 -7 -12 -5 0 9 14 18 22 22 20 10 -4 -25 4
-24 22 2 18 26 20 27 16 7 -4 -18 -3 -21 7 -13 7 6 16 7 21 3 4 -4 2 4 -5 18
-12 22 -12 24 3 12 13 -11 17 -10 26 7 13 23 2 34 -19 20 -27 -16 -35 -9 -10
8 14 10 29 17 33 15 4 -1 10 5 13 13 3 8 11 12 18 8 6 -3 8 -3 4 2 -9 9 10 47
20 41 4 -2 8 10 8 27 1 17 6 33 13 35 14 5 15 42 1 42 -5 0 -10 -4 -10 -10 0
-5 -5 -10 -11 -10 -6 0 -34 -15 -62 -34 -48 -31 -81 -43 -140 -51 -12 -1 -33
-7 -47 -13 -14 -5 -51 -13 -83 -16 -33 -4 -70 -11 -84 -17 -32 -12 -185 -8
-199 6 -21 20 -34 54 -34 87 0 50 46 82 120 83 30 1 62 4 71 8 30 15 5 97 -30
97 -10 0 -20 3 -24 6 -3 4 -25 8 -48 9 -63 5 -147 -51 -193 -129 -51 -86 -102
-253 -118 -383 -1 -7 -5 -13 -9 -13 -3 0 -9 -10 -12 -22 -3 -13 -13 -43 -22
-67 -9 -24 -14 -50 -11 -58 3 -8 2 -12 -3 -9 -5 3 -14 -7 -21 -23 -6 -16 -20
-37 -31 -47 -10 -9 -19 -24 -19 -32 0 -9 -7 -13 -20 -9 -11 3 -18 2 -15 -3 3
-4 -9 -10 -26 -12 -20 -3 -28 -1 -25 7 3 8 -4 10 -19 7 -12 -2 -25 1 -29 6 -6
10 -56 -7 -56 -18 0 -4 -16 -4 -36 -2 -26 3 -38 10 -42 24 -3 14 -7 16 -12 7
-6 -8 -13 -2 -24 19 -15 30 -33 37 -47 19 -7 -9 -39 2 -39 14 0 4 6 6 13 3 8
-3 14 2 14 11 0 8 -4 15 -9 15 -4 0 -8 7 -8 15 0 8 -5 14 -11 13 -6 -2 -13 6
-15 17 -4 29 -45 55 -77 51 -24 -4 -27 -2 -22 15 6 18 5 18 -37 -1 -30 -13
-45 -16 -50 -7 -3 6 -5 14 -3 18 3 3 -7 5 -20 3 -39 -4 -62 6 -74 32 -6 13
-19 24 -30 24 -33 0 -49 10 -44 30 3 10 0 21 -6 24 -6 4 -11 2 -11 -3 0 -21
-38 -11 -43 10 -4 15 -11 20 -21 16 -9 -4 -16 -1 -16 5 0 16 -41 48 -62 48
-10 0 -21 7 -24 15 -4 8 -12 15 -20 15 -8 0 -14 9 -14 19 0 10 -7 21 -14 24
-11 4 -13 1 -10 -11 3 -9 -3 -5 -13 11 -10 15 -26 30 -35 33 -10 3 -18 10 -18
15 0 6 -5 7 -11 3 -7 -4 -10 -1 -7 7 3 8 12 13 21 13 9 -1 13 4 10 11 -6 16
-31 27 -44 19 -5 -3 -9 2 -9 11 0 8 -12 20 -26 25 -35 14 -36 13 -19 -14 11
-16 13 -26 6 -31 -6 -3 -11 -1 -11 6 0 10 -3 10 -12 1 -17 -17 -28 -15 -28 4
0 8 5 12 10 9 6 -3 10 3 10 14 0 12 -4 21 -10 21 -5 0 -10 -4 -10 -10 0 -5
-10 -10 -22 -10 -22 1 -23 1 -4 15 11 8 16 15 10 15 -5 0 -2 5 6 10 13 8 13
10 -2 10 -9 0 -19 6 -21 13 -4 9 -6 9 -6 0 -1 -7 -13 -13 -27 -13 -21 0 -25 4
-21 20 3 11 0 18 -6 17 -5 -1 -13 9 -17 23 -6 21 -8 23 -15 8 -4 -10 -11 -15
-16 -12 -5 3 -9 -2 -9 -11 0 -13 -4 -14 -20 -5 -11 6 -25 8 -30 5 -10 -6 -20
7 -25 35 -2 11 -8 28 -14 37 -10 17 -10 17 -11 -2 -1 -19 -1 -19 -11 -2 -6 9
-14 15 -20 12 -5 -4 -9 4 -9 16 0 17 -5 20 -25 17 -14 -3 -28 -1 -31 3 -3 5
-12 9 -20 9 -8 0 -25 9 -37 20 -18 18 -19 22 -7 30 9 6 17 5 22 -3 6 -9 8 -9
8 1 0 7 -7 15 -15 18 -8 4 -15 15 -15 26 0 10 -4 17 -9 14 -5 -3 -12 10 -15
28 -4 19 -12 37 -19 39 -9 4 -8 6 1 6 16 1 51 41 52 58 0 19 21 27 31 12 5 -8
6 -21 3 -31 -2 -9 0 -19 5 -23 16 -9 25 43 11 60 -10 12 -9 15 8 15 11 0 25 7
32 15 10 12 10 15 -4 15 -9 0 -16 7 -16 16 0 8 4 13 9 9 5 -3 13 0 17 6 4 8 3
9 -4 5 -7 -4 -12 -1 -12 9 0 8 7 18 15 21 8 4 15 12 15 20 0 8 3 13 8 13 26
-4 34 1 22 16 -7 9 -10 18 -6 22 3 3 6 1 6 -6 0 -7 8 -11 17 -9 10 2 18 9 18
17 0 8 16 14 48 16 26 1 54 8 62 15 18 15 25 10 28 -18 1 -16 5 -19 18 -11 10
5 20 19 22 31 4 22 4 22 6 2 0 -12 8 -25 17 -28 11 -4 15 -2 11 6 -3 9 5 13
25 13 22 1 28 -3 25 -16 -2 -9 0 -24 5 -33 7 -13 5 -16 -12 -16 -12 0 -18 -4
-15 -10 3 -5 1 -10 -4 -10 -17 0 -13 -26 6 -41 15 -12 16 -12 8 1 -5 10 -1 8
13 -4 21 -18 21 -18 19 10 -1 17 5 36 16 47 10 10 15 22 12 27 -3 6 1 7 10 4
12 -5 13 -10 6 -17 -16 -16 -14 -31 8 -54 17 -18 18 -25 7 -57 -7 -19 -15 -39
-19 -42 -10 -11 -8 -24 4 -24 5 0 7 5 4 10 -3 6 1 10 9 10 9 0 16 -7 16 -15 0
-9 10 -20 22 -26 22 -9 21 -9 -4 -6 -16 3 -28 0 -28 -4 0 -5 7 -9 16 -9 8 0
13 -4 10 -9 -6 -9 22 -26 37 -22 5 1 7 -7 5 -17 -2 -11 3 -26 11 -35 11 -14
11 -20 0 -34 -10 -11 -10 -14 -1 -9 7 4 12 2 12 -4 0 -6 5 -8 12 -4 6 4 9 3 6
-2 -3 -5 -2 -18 2 -29 4 -13 1 -26 -11 -39 -10 -10 -15 -24 -12 -30 5 -7 8 -6
10 1 3 8 13 6 32 -5 20 -11 27 -21 23 -35 -4 -16 -2 -18 14 -10 27 12 98 8 90
-6 -7 -11 12 -18 46 -17 14 1 25 -1 22 -5 -6 -11 32 -17 47 -8 7 4 19 3 26 -2
8 -7 19 -7 34 1 14 8 19 8 15 1 -7 -11 8 -15 52 -13 12 1 21 -2 18 -6 -9 -15
122 -13 157 1 18 8 50 14 70 12 20 -1 37 2 37 6 0 4 9 7 20 6 11 -1 20 -8 20
-16 0 -12 3 -11 13 3 7 9 19 18 27 20 8 2 22 6 31 10 9 4 20 6 25 5 34 -8 108
53 147 121 15 25 40 59 57 77 16 18 30 34 30 37 0 3 17 21 38 41 43 40 87 47
95 14 3 -12 10 -18 17 -14 6 4 20 -1 31 -11 16 -15 19 -15 19 -1 0 8 -6 17
-12 20 -7 2 -1 4 13 3 20 -1 26 -5 23 -19 -2 -15 0 -16 10 -8 11 9 14 8 12 -6
-1 -13 7 -19 32 -21 17 -2 32 1 32 6 0 5 14 15 30 22 16 7 30 18 31 24 0 6 4
2 9 -9 8 -18 9 -18 9 -2 1 10 5 16 10 13 5 -4 11 -1 13 6 5 13 58 -36 58 -53
0 -4 9 -5 20 -2 11 3 18 9 15 13 -3 4 2 10 10 14 8 3 15 13 16 23 1 12 3 10 9
-7 l8 -25 1 28 c1 16 5 26 11 22 6 -3 10 -2 10 4 0 6 6 8 14 5 10 -4 13 5 13
38 -1 39 -6 48 -60 101 -32 32 -60 63 -61 70 -1 7 -5 18 -9 25 -5 6 -5 12 -2
12 4 0 -3 15 -14 33 -11 18 -20 42 -20 52 -3 122 5 169 40 236 10 20 17 38 15
40 -2 2 5 13 16 24 11 11 19 16 17 10 -3 -13 11 -46 27 -65 7 -8 13 -18 13
-23 2 -24 34 -67 51 -67 10 0 22 -5 25 -10 4 -6 11 -8 16 -5 5 4 5 -5 -1 -20
-13 -35 -13 -48 3 -42 6 2 11 15 9 28 -2 17 0 20 6 10 8 -11 10 -11 15 0 5 12
7 12 15 0 7 -9 12 -10 16 -2 4 6 1 11 -6 11 -9 0 -9 3 2 10 11 8 8 9 -12 4
-18 -4 -28 -2 -28 6 0 6 5 8 10 5 6 -3 10 -1 10 4 0 6 -5 11 -11 11 -5 0 -7 5
-4 10 3 6 1 10 -4 10 -6 0 -11 -4 -11 -10 0 -5 -5 -10 -10 -10 -6 0 -6 7 1 18
14 22 49 24 42 2 -4 -13 -4 -13 6 0 6 8 11 33 12 55 1 22 3 32 6 23 2 -10 11
-18 19 -18 8 0 12 5 9 10 -3 6 -1 10 6 10 7 0 4 7 -7 15 -19 15 -19 15 1 9
l20 -6 -20 17 c-20 17 -20 17 1 11 23 -7 43 19 21 27 -8 3 -1 16 17 36 28 29
33 41 38 84 1 9 6 17 10 17 4 0 8 6 8 13 0 8 11 19 25 25 14 6 25 16 25 22 0
6 10 10 23 8 14 -2 22 2 22 12 0 8 5 18 10 22 6 5 5 8 -3 8 -7 0 -10 5 -7 11
4 6 19 7 36 4 24 -5 28 -4 23 9 -3 9 -2 16 4 16 6 0 13 -6 15 -12 4 -10 6 -10
6 0 1 7 6 10 13 6 7 -4 8 -3 4 5 -7 11 32 33 46 24 4 -2 5 2 3 9 -4 9 2 14 16
15 11 1 38 10 60 21 28 14 41 16 50 8 9 -8 10 -7 4 3 -6 11 -2 13 18 7 14 -3
28 -2 32 3 6 10 44 9 61 -2 6 -3 11 -1 12 6 0 7 2 21 4 32 2 12 -2 19 -9 17
-7 -1 -13 3 -13 9 0 6 -9 9 -19 6 -12 -3 -29 4 -41 15 -11 11 -28 17 -36 14
-7 -3 -14 -2 -14 2 0 7 -144 57 -190 66 -21 4 -90 33 -125 53 -16 9 -45 23
-62 32 -18 8 -33 19 -33 23 0 4 -6 8 -14 8 -8 0 -17 7 -20 16 -3 8 -10 13 -15
10 -5 -4 -11 -2 -13 2 -5 13 -147 102 -162 102 -8 0 -16 6 -19 14 -3 7 -14 15
-24 18 -18 5 -19 2 -7 -46 6 -28 17 -80 24 -116 6 -36 15 -76 18 -90 3 -14 5
-77 5 -140 -1 -123 -15 -181 -53 -207 -11 -8 -20 -25 -20 -39 0 -14 -4 -23 -8
-20 -9 5 -43 -29 -37 -36 2 -2 -7 -5 -21 -6 -14 -1 -33 -6 -43 -12 -10 -5 -21
-6 -25 -3 -3 3 -6 1 -6 -6 0 -7 -4 -10 -10 -6 -5 3 -18 -3 -30 -15 -11 -11
-20 -17 -20 -12 0 4 -4 1 -9 -6 -8 -14 -23 -17 -118 -27 -44 -5 -52 -3 -56 12
-3 10 -5 1 -6 -19 0 -21 -5 -38 -9 -38 -5 0 -17 -8 -28 -18 -20 -19 -102 -44
-116 -36 -4 3 -8 -2 -8 -10 0 -14 -11 -18 -36 -15 -3 0 -16 -12 -29 -27 -16
-18 -29 -25 -43 -22 -16 4 -23 -1 -32 -23 -7 -16 -16 -27 -20 -24 -4 2 -22 -9
-40 -25 -19 -17 -39 -30 -47 -30 -7 0 -22 -13 -35 -30 -19 -27 -58 -45 -43
-20 3 6 3 10 -2 10 -4 0 -14 -14 -22 -32 -12 -27 -15 -29 -21 -14 -5 16 -8 15
-24 -9 -10 -15 -20 -24 -23 -21 -3 3 -12 -2 -19 -12 -13 -16 -13 -16 -14 2 0
18 -1 18 -12 4 -20 -24 -68 -52 -68 -39 0 8 -9 7 -29 -3 -16 -9 -31 -13 -34
-9 -4 3 -11 -5 -16 -18 -5 -13 -19 -33 -32 -44 -12 -11 -19 -14 -14 -6 6 10 4
12 -6 5 -8 -5 -25 -10 -38 -12 -14 -2 -32 -7 -42 -13 -10 -5 -24 -9 -32 -9
-17 0 -30 37 -16 46 5 3 9 11 8 17 0 9 -2 9 -6 0 -9 -23 -25 -14 -21 11 3 16
-2 28 -14 37 -10 8 -16 19 -13 26 9 24 -3 13 -24 -23 -20 -34 -30 -64 -11 -34
8 12 10 12 16 -3 8 -22 21 -22 27 1 3 9 4 1 2 -18 -1 -19 -7 -36 -14 -38 -6
-2 -10 1 -9 6 2 6 -1 9 -7 8 -5 0 -10 -6 -9 -11 1 -6 -11 -11 -25 -12 -14 -1
-21 1 -14 3 7 3 9 13 6 22 -4 13 -3 14 5 3 7 -9 11 -10 17 -2 4 7 2 17 -4 24
-12 16 -23 69 -12 62 5 -2 13 1 18 8 14 17 23 58 12 51 -14 -9 -10 15 7 41 9
14 23 25 30 25 8 0 14 9 14 20 0 11 7 20 15 20 10 0 15 10 15 28 0 22 -2 24
-11 12 -9 -13 -10 -13 -6 0 2 8 10 14 16 12 7 -1 23 11 37 27 15 18 31 28 39
24 8 -3 15 -1 15 4 0 6 10 14 21 19 15 7 22 20 24 44 1 19 0 29 -2 23 -3 -7
-18 -13 -34 -13 -16 0 -29 -3 -30 -7 -4 -44 -39 -107 -47 -85 -2 7 3 21 11 30
13 14 14 23 4 55 -7 20 -18 37 -24 37 -7 0 -13 5 -13 10 0 6 -9 10 -20 10 -18
0 -19 3 -8 20 13 20 13 20 20 0 4 -11 12 -21 18 -21 5 -1 15 -2 22 -3 6 0 12
-11 13 -23 1 -13 5 -26 8 -30 9 -8 7 34 -2 67 -6 22 -8 23 -14 7 -4 -10 -12
-15 -18 -12 -7 5 -5 13 7 26 20 22 34 16 34 -13 0 -21 0 -21 22 -2 12 10 18
13 14 7 -11 -19 9 -16 25 4 8 9 9 14 3 11 -5 -4 -23 7 -40 25 -16 17 -22 27
-14 22 13 -8 13 -6 1 8 -7 9 -11 24 -7 32 3 8 1 15 -5 15 -6 0 -7 5 -4 10 3 6
1 10 -6 10 -7 0 -9 -8 -6 -21 6 -24 -27 -64 -45 -53 -8 5 -9 2 -5 -9 4 -11 1
-17 -8 -17 -9 0 -12 6 -9 15 5 11 2 13 -11 9 -15 -6 -16 -4 -6 14 14 26 4 29
-16 5 -8 -10 -12 -12 -8 -5 4 7 0 12 -9 12 -8 0 -16 3 -19 8 -2 4 -3 3 -2 -3
1 -5 -1 -19 -6 -30 l-8 -20 -1 20 c-1 19 -1 19 -15 1 -7 -10 -18 -15 -24 -11
-11 6 -15 -11 -11 -55 2 -25 2 -25 -17 -5 -20 23 -39 25 -68 8 -18 -10 -21 -9
-22 8 -1 11 5 19 15 19 14 0 13 2 -3 13 -11 9 -15 19 -11 28 4 8 1 6 -7 -4
-14 -17 -15 -16 -20 3 -3 13 -10 18 -21 14 -12 -5 -16 0 -16 16 0 21 -1 22
-18 8 -22 -20 -48 -13 -31 8 6 8 8 14 3 14 -5 0 -4 4 3 8 18 11 4 54 -16 50
-9 -2 -15 -12 -15 -21 2 -13 -3 -16 -17 -12 -14 5 -17 2 -13 -9 3 -8 12 -12
20 -9 9 3 14 -2 14 -16 0 -15 -4 -19 -17 -14 -10 4 -24 13 -31 20 -8 7 -17 11
-21 8 -5 -2 -6 7 -3 20 2 15 0 25 -7 25 -7 0 -9 -6 -6 -12 4 -7 -1 -4 -9 6 -9
11 -16 23 -16 28 0 4 -6 8 -14 8 -9 0 -16 16 -20 44 -5 32 -11 43 -21 40 -9
-4 -13 1 -11 13 4 23 -13 73 -25 74 -5 1 -14 2 -21 3 -6 0 -13 8 -15 16 -4 13
-3 13 6 0 14 -20 14 -7 0 24 -7 14 -16 23 -22 19 -6 -3 -8 -2 -5 3 3 5 -3 25
-13 44 -18 32 -19 33 -19 10 -1 -22 -2 -23 -11 -7 -5 9 -7 22 -3 28 9 16 11
88 2 82 -5 -2 -8 7 -8 21 0 14 -4 26 -10 26 -5 0 -7 7 -4 15 4 8 1 15 -4 15
-6 0 -13 -10 -15 -22 -2 -13 -4 -5 -4 17 0 22 -5 56 -11 75 -11 33 -10 34 4
15 16 -20 16 -20 10 2 -14 46 -14 62 0 67 9 3 12 10 9 16 -3 6 1 7 9 4 14 -5
14 -3 1 22 -14 27 -14 30 7 46 13 9 31 24 40 32 12 11 18 12 22 3 2 -7 5 -4 5
6 1 10 5 16 10 13 5 -3 25 5 45 19 40 27 42 26 21 -14 -17 -35 -71 -81 -92
-81 -9 0 -13 -3 -10 -6 12 -12 65 18 102 57 20 21 45 39 55 39 28 0 26 -1 70
15 22 8 40 11 40 7 0 -4 5 0 10 8 6 9 10 11 10 3 0 -7 7 -10 15 -7 8 4 13 10
10 14 -3 4 12 20 32 36 20 15 33 22 29 16 -5 -8 0 -12 14 -12 12 0 19 -4 16
-8 -3 -5 12 -6 32 -2 29 5 42 2 62 -14 14 -11 19 -14 13 -6 -16 17 -17 34 -2
25 16 -10 100 16 121 37 10 10 30 18 46 19 15 1 41 2 57 4 25 2 77 -17 95 -35
9 -9 42 -12 68 -5 22 5 23 7 8 18 -16 12 -16 14 3 31 12 11 21 15 21 10 0 -5
4 -2 10 6 10 16 110 42 110 28 0 -4 18 -5 40 -2 25 4 40 3 40 -4 0 -7 8 -6 24
1 14 7 23 13 21 15 -2 2 30 21 71 42 89 45 107 53 99 41 -3 -5 -2 -17 1 -26 6
-14 8 -14 24 0 9 8 20 12 24 8 4 -4 10 -3 14 3 5 7 22 4 52 -7 25 -10 42 -18
37 -18 -4 -1 1 -9 10 -19 16 -15 19 -16 29 -3 9 12 15 10 35 -13 l24 -27 23
28 c14 15 21 22 18 16 -4 -8 -1 -13 7 -13 8 0 18 7 21 16 3 8 10 12 16 9 5 -3
10 3 10 14 0 12 7 21 15 21 9 0 12 6 9 15 -8 20 14 72 33 79 12 5 14 15 9 46
-4 25 -2 40 4 40 5 0 10 -4 10 -9 0 -5 11 -11 25 -13 13 -3 22 -2 20 2 -3 4 4
15 15 25 16 14 20 31 20 75 0 31 3 60 8 64 9 10 11 37 11 238 1 98 5 169 11
173 16 10 12 25 -5 19 -11 -4 -14 1 -12 23 1 15 6 31 12 35 6 4 3 21 -8 43
-20 41 -22 59 -6 49 8 -4 8 0 0 15 -10 18 -9 21 7 21 15 0 18 7 16 40 -1 22 2
43 7 46 5 3 9 10 9 15 0 6 -5 7 -12 3 -7 -5 -8 -3 -4 5 5 7 15 10 23 7 8 -3
12 -2 9 2 -3 5 1 20 9 35 8 15 10 27 5 27 -4 0 -10 -6 -13 -12 -2 -7 -8 -9
-13 -5 -5 4 -2 12 6 17 8 6 11 10 7 10 -4 0 -3 9 3 20 6 11 15 18 21 15 8 -6
14 17 10 39 -1 5 4 13 11 17 7 5 -1068 9 -2390 9 l-2402 0 -46 -72 c-25 -40
-76 -102 -115 -138 -68 -64 -69 -65 -59 -100 11 -38 4 -74 -12 -64 -6 4 -6 -2
1 -15 10 -18 9 -21 -6 -21 -14 0 -15 -2 -4 -9 9 -6 10 -11 2 -15 -6 -4 -9 -11
-7 -15 11 -18 -132 -17 -150 2 -4 3 -14 2 -24 -3 -12 -6 -17 -5 -17 5 0 8 5
12 11 8 6 -3 -2 6 -17 20 -16 14 -26 31 -23 36 4 6 -5 13 -19 17 -13 3 -22 10
-19 15 3 5 2 9 -3 8 -18 -4 -72 14 -67 22 3 5 0 10 -5 10 -6 1 -15 2 -20 3 -5
0 -19 13 -31 29 -12 15 -28 27 -36 27 -8 0 -12 5 -9 10 3 6 1 10 -6 10 -7 0
-10 3 -6 6 3 4 -5 21 -18 39 -14 17 -25 39 -25 48 0 9 -4 19 -10 22 -5 3 -10
31 -10 61 l0 54 -216 -2 -216 -3 -3 -45 c-2 -25 -6 -81 -9 -125 -4 -44 -8 -91
-11 -105 -5 -25 -13 -97 -21 -175 -10 -108 -14 -137 -23 -154 -6 -10 -8 -21
-6 -23 3 -3 -1 -24 -9 -46 -9 -23 -13 -42 -9 -42 3 0 1 -6 -4 -12 -6 -7 -11
-20 -11 -28 -1 -19 -21 -100 -29 -120 -8 -18 -7 -16 -17 -65 -4 -22 -12 -46
-18 -52 -6 -7 -7 -13 -3 -13 4 0 -9 -13 -29 -29 -20 -16 -36 -33 -36 -37 2
-10 -52 -44 -62 -38 -4 3 -8 1 -8 -4 0 -14 -35 -21 -51 -11 -8 4 -16 4 -19 -2
-4 -5 -60 -11 -126 -14 -126 -4 -142 -6 -161 -18 -7 -5 -17 -5 -23 -2 -5 3
-10 1 -10 -4 0 -6 -6 -10 -12 -9 -7 2 -12 -5 -11 -16 1 -11 -2 -15 -8 -9 -11
11 -92 -7 -131 -28 -13 -7 -28 -12 -35 -11 -6 1 -14 -2 -18 -8 -4 -7 -13 -7
-27 1 -15 8 -19 8 -14 0 4 -7 -1 -11 -13 -11 -11 0 -23 -5 -26 -10 -4 -6 -20
-9 -36 -6 -16 2 -29 0 -29 -6 0 -6 -9 -8 -20 -5 -11 3 -18 1 -14 -4 3 -5 -3
-10 -13 -10 -10 -1 -22 -2 -28 -3 -5 -1 -29 -6 -52 -10 -30 -6 -43 -14 -43
-25 0 -14 -2 -14 -10 -1 -6 10 -10 11 -10 3 0 -8 -11 -11 -30 -9 -16 2 -27 -1
-24 -5 3 -5 -4 -9 -16 -9 -12 0 -31 -5 -43 -11 -15 -9 -22 -9 -25 -1 -2 6 -9
9 -17 6 -8 -3 -11 -13 -8 -22 3 -11 2 -13 -4 -6 -4 6 -31 10 -60 9 -43 -2 -50
0 -46 14 5 13 3 14 -8 4 -19 -19 -28 -16 -24 6 3 14 -1 18 -11 14 -10 -4 -13
0 -8 13 5 18 5 18 -6 1 -8 -13 -9 -22 -1 -31 9 -10 6 -13 -11 -12 -17 1 -25 9
-29 31 -4 17 -7 22 -8 12 0 -10 -6 -15 -12 -12 -6 4 -8 14 -5 22 4 9 1 13 -6
10 -7 -2 -12 -11 -10 -18 2 -8 0 -11 -4 -6 -4 4 -9 17 -11 30 -6 37 -23 44
-18 8 2 -18 1 -30 -3 -26 -4 3 -7 12 -8 18 0 7 -2 20 -2 29 -1 9 -11 20 -23
23 -20 7 -79 59 -79 71 0 11 -71 78 -85 80 -20 3 -54 41 -61 69 -3 14 -10 22
-16 19 -5 -3 -16 2 -23 12 -17 23 -19 38 -4 29 7 -5 7 -2 0 11 -10 20 -24 55
-25 66 -1 3 -4 10 -8 14 -5 4 -8 12 -8 18 0 6 5 4 10 -4 7 -10 8 -3 5 24 -3
21 -8 43 -11 48 -4 6 1 8 14 4 16 -5 20 -3 17 11 -1 10 4 25 12 34 12 14 12
19 -2 33 -16 15 -12 21 10 16 6 -1 4 4 -2 11 -20 20 -16 29 12 29 22 0 24 2
15 26 -6 14 -6 23 -1 20 9 -6 45 30 54 54 5 13 6 12 6 -1 1 -9 -6 -22 -14 -29
-8 -7 -15 -18 -15 -24 1 -6 10 0 20 13 20 24 28 77 10 66 -5 -3 -7 0 -4 9 3 8
-2 16 -13 19 -17 4 -17 5 1 6 15 1 16 4 7 15 -8 10 -9 16 -1 21 5 3 10 11 10
16 0 6 -4 8 -9 4 -14 -8 -34 33 -28 55 4 15 0 17 -19 14 -13 -2 -24 0 -24 6 0
14 -70 84 -77 76 -4 -3 -1 -6 5 -6 20 0 13 -27 -8 -33 -14 -3 -18 -1 -13 6 12
19 14 89 3 82 -6 -4 -7 -11 -4 -17 4 -7 2 -8 -5 -4 -8 5 -9 12 -2 19 5 7 9 16
9 22 1 10 33 25 43 19 4 -2 10 3 13 11 4 13 2 14 -14 5 -16 -9 -20 -8 -20 5 0
9 5 13 10 10 6 -3 10 -1 10 4 0 6 -5 11 -12 11 -6 0 -8 3 -5 6 4 4 13 1 21 -5
10 -8 16 -9 21 -1 3 5 1 10 -4 10 -6 0 -11 5 -11 10 0 7 8 7 23 -1 17 -9 20
-9 10 1 -6 7 -9 19 -6 27 5 12 7 12 14 1 7 -10 9 -11 9 0 0 7 5 10 10 7 6 -3
10 0 10 9 0 8 -6 17 -12 19 -8 3 -6 6 5 6 15 1 21 12 18 33 0 4 6 5 14 2 8 -4
15 -1 15 6 0 6 4 9 8 6 5 -3 9 1 9 9 0 13 -47 15 -319 15 l-318 0 0 -849z
m260 789 c5 0 14 8 19 18 6 9 11 15 11 12 9 -39 9 -53 1 -42 -6 11 -10 10 -15
-4 -4 -10 -4 -15 0 -11 4 4 13 2 21 -4 10 -9 13 -8 13 0 0 7 5 9 11 6 6 -5 4
-12 -7 -20 -17 -12 -17 -14 -1 -29 9 -10 17 -26 17 -37 0 -11 5 -17 10 -14 6
3 10 1 10 -5 0 -6 5 -8 10 -5 6 3 10 1 10 -5 0 -6 4 -8 10 -5 6 3 7 -1 4 -9
-3 -9 -11 -13 -18 -9 -6 3 -3 -3 7 -14 9 -11 14 -23 10 -26 -3 -4 -1 -7 5 -7
7 0 12 5 12 12 0 6 9 1 19 -11 22 -25 17 -60 -8 -62 -9 -1 -5 -4 9 -9 14 -4
19 -8 11 -9 -8 -1 -11 -8 -8 -20 4 -18 -16 -37 -35 -33 -5 1 -8 -2 -8 -8 0 -6
7 -10 15 -10 18 0 20 -16 3 -26 -7 -4 -8 -3 -4 4 11 17 -9 15 -24 -3 -10 -13
-9 -15 11 -16 21 -1 20 -2 -6 -9 -16 -4 -24 -9 -17 -10 6 -1 17 -4 22 -5 6 -1
13 -3 18 -4 4 -1 1 -5 -5 -9 -10 -6 -9 -16 6 -44 13 -26 14 -35 4 -31 -8 3
-13 -2 -13 -13 -1 -26 -26 -69 -33 -57 -3 5 -2 15 4 23 14 24 10 33 -7 16 -16
-16 -11 -56 7 -56 18 0 8 -16 -11 -17 -13 -1 -18 2 -14 9 5 7 2 8 -5 4 -7 -5
-10 -15 -7 -23 4 -9 -1 -17 -14 -20 -11 -3 -17 -10 -13 -16 4 -6 -1 -8 -13 -5
-15 4 -19 0 -19 -17 1 -11 5 -26 9 -33 4 -7 3 -12 -3 -12 -5 0 -13 5 -16 10
-3 6 -12 10 -18 10 -7 0 -4 -5 6 -11 9 -6 14 -15 11 -21 -4 -7 -2 -8 4 -4 7 4
12 3 12 -3 0 -5 -6 -11 -12 -13 -7 -3 -13 -16 -14 -29 -2 -36 -14 -58 -30 -52
-20 7 -17 24 4 21 12 -2 16 3 14 17 -2 11 -9 23 -15 27 -8 5 -8 8 2 8 8 0 12
2 9 5 -8 9 -38 -6 -32 -16 10 -17 -2 -9 -25 15 -17 18 -19 26 -10 31 8 5 10 4
5 -3 -4 -7 -2 -12 3 -12 6 0 11 5 11 10 0 6 10 10 23 9 21 0 21 -1 2 -9 -17
-8 -16 -8 8 -7 15 1 27 5 27 9 0 4 -12 10 -27 14 -62 13 -66 16 -52 25 12 7
11 9 -1 9 -9 0 -21 -5 -27 -11 -7 -7 -13 -7 -17 -1 -3 5 1 15 9 22 7 6 12 17
9 25 -3 7 -1 16 4 19 11 7 5 44 -11 64 -6 8 -5 12 4 12 10 0 11 2 2 8 -6 4
-13 14 -15 22 -2 8 -10 21 -18 28 -8 8 -9 11 -2 7 17 -9 15 23 -2 41 -15 14
-15 32 -1 67 4 10 3 17 -5 17 -6 0 -9 -3 -7 -7 3 -5 -2 -15 -11 -23 -14 -13
-15 -12 -8 5 5 11 9 31 10 45 1 17 6 24 16 22 10 -2 6 6 -10 23 -16 17 -21 29
-14 33 6 4 14 20 18 35 4 15 11 25 16 22 5 -3 12 4 15 16 5 13 12 18 22 14 13
-4 14 -3 3 10 -9 11 -9 15 -1 15 7 0 9 4 6 10 -3 6 1 7 10 4 14 -6 16 -1 12
25 -4 20 -1 31 7 31 11 0 46 34 46 45 0 2 -7 1 -17 -2 -11 -4 -14 -3 -9 5 9
15 36 16 36 2 0 -5 5 -10 12 -10 6 0 4 8 -6 19 -11 12 -14 21 -7 26 6 3 12 16
12 28 2 22 2 22 6 0 2 -13 8 -23 13 -23z m260 -284 c0 -2 -7 -6 -15 -10 -8 -3
-15 -1 -15 4 0 6 7 10 15 10 8 0 15 -2 15 -4z m60 -46 c0 -5 -5 -10 -11 -10
-5 0 -7 5 -4 10 3 6 8 10 11 10 2 0 4 -4 4 -10z m-137 -130 c3 -11 1 -18 -4
-14 -5 3 -9 12 -9 20 0 20 7 17 13 -6z m-27 -85 c-3 -19 -26 -44 -26 -28 0 18
12 43 20 43 5 0 7 -7 6 -15z m-326 -10 c11 -13 10 -14 -4 -9 -9 3 -16 10 -16
15 0 13 6 11 20 -6z m31 -62 c-12 -20 -14 -14 -5 12 4 9 9 14 11 11 3 -2 0
-13 -6 -23z m274 18 c3 -5 2 -12 -3 -15 -5 -3 -9 1 -9 9 0 17 3 19 12 6z
m-102 -94 c3 -8 -1 -14 -8 -14 -7 0 -11 6 -8 14 3 7 6 13 8 13 2 0 5 -6 8 -13z
m-123 -85 c0 -5 -7 -9 -15 -9 -8 0 -12 4 -9 9 3 4 9 8 15 8 5 0 9 -4 9 -8z
m327 -91 c-5 -2 -13 3 -18 10 -15 24 -10 30 9 12 10 -10 14 -20 9 -22z m6874
-441 l24 -19 -29 8 c-16 4 -31 12 -34 19 -6 18 13 14 39 -8z m-6471 0 c0 -5
-2 -10 -4 -10 -3 0 -8 5 -11 10 -3 6 -1 10 4 10 6 0 11 -4 11 -10z m37 -42
c-3 -8 -6 -5 -6 6 -1 11 2 17 5 13 3 -3 4 -12 1 -19z m-150 -74 c-3 -3 -12 -4
-19 -1 -8 3 -5 6 6 6 11 1 17 -2 13 -5z m-168 -43 c-2 -6 -10 2 -17 17 -11 25
-11 25 4 10 9 -9 15 -21 13 -27z m51 9 c0 13 1 13 10 0 5 -8 10 -10 10 -5 0 6
15 11 34 11 l34 0 -23 -24 c-23 -23 -25 -23 -42 -7 -11 12 -18 14 -21 6 -5
-16 -22 -3 -22 17 0 15 2 15 10 2 9 -13 10 -13 10 0z m100 -24 c0 -3 -4 -8
-10 -11 -5 -3 -10 -1 -10 4 0 6 5 11 10 11 6 0 10 -2 10 -4z m-227 -20 c4 -10
1 -13 -8 -9 -8 3 -12 9 -9 14 7 12 11 11 17 -5z m147 4 c0 -5 -8 -10 -17 -10
-15 0 -16 2 -3 10 19 12 20 12 20 0z m-223 -26 c-3 -3 -12 -4 -19 -1 -8 3 -5
6 6 6 11 1 17 -2 13 -5z m118 -4 c3 -6 -1 -7 -9 -4 -18 7 -21 14 -7 14 6 0 13
-4 16 -10z m-178 -16 c-3 -3 -12 -4 -19 -1 -8 3 -5 6 6 6 11 1 17 -2 13 -5z
m28 -54 c3 -5 1 -10 -4 -10 -6 0 -11 5 -11 10 0 6 2 10 4 10 3 0 8 -4 11 -10z
m6132 -452 c-3 -8 -6 -5 -6 6 -1 11 2 17 5 13 3 -3 4 -12 1 -19z m2513 -102
c0 -3 -4 -8 -10 -11 -5 -3 -10 -1 -10 4 0 6 5 11 10 11 6 0 10 -2 10 -4z
m-230 -241 c-7 -9 -15 -13 -19 -10 -3 3 1 10 9 15 21 14 24 12 10 -5z m-1760
-9 c0 -3 -4 -8 -10 -11 -5 -3 -10 -1 -10 4 0 6 5 11 10 11 6 0 10 -2 10 -4z
m-29 -70 c5 3 9 -1 9 -9 0 -7 -11 -19 -25 -25 -20 -9 -23 -9 -18 3 3 8 0 15
-5 15 -6 0 -12 -10 -14 -22 -2 -16 -6 -19 -11 -11 -5 8 2 22 20 39 15 14 29
21 31 15 2 -6 8 -9 13 -5z m109 10 c0 -3 -4 -8 -10 -11 -5 -3 -10 -1 -10 4 0
6 5 11 10 11 6 0 10 -2 10 -4z m-18 -48 c-7 -7 -12 -8 -12 -2 0 14 12 26 19
19 2 -3 -1 -11 -7 -17z m78 13 c0 -6 -4 -12 -8 -15 -5 -3 -9 1 -9 9 0 8 4 15
9 15 4 0 8 -4 8 -9z m11 -38 c-8 -15 -10 -15 -11 -2 0 17 10 32 18 25 2 -3 -1
-13 -7 -23z m79 -7 c0 -2 -7 -9 -15 -16 -13 -11 -14 -10 -9 4 5 14 24 23 24
12z m-150 -141 c-16 -19 -27 -19 -27 0 0 8 4 12 8 9 4 -2 11 1 14 7 4 5 9 8
12 5 3 -3 0 -12 -7 -21z m-124 -4 c-4 -5 -15 -9 -26 -8 -10 1 -16 5 -13 10 3
4 11 6 19 3 8 -3 14 0 14 6 0 6 3 9 6 5 3 -3 3 -10 0 -16z m-4 -103 c-7 -7
-12 -8 -12 -2 0 14 12 26 19 19 2 -3 -1 -11 -7 -17z m-352 -17 c0 -20 -25 -29
-43 -17 -24 18 -22 23 13 24 17 0 30 -3 30 -7z m-70 -5 c0 -3 -4 -8 -10 -11
-5 -3 -10 -1 -10 4 0 6 5 11 10 11 6 0 10 -2 10 -4z m93 -35 c-4 -15 -8 -17
-17 -8 -9 8 -10 15 -2 23 15 16 25 8 19 -15z m-73 -12 c0 -6 -4 -7 -10 -4 -5
3 -10 11 -10 16 0 6 5 7 10 4 6 -3 10 -11 10 -16z m434 9 c-3 -5 -10 -6 -15
-2 -5 3 -17 0 -25 -7 -12 -10 -13 -9 -8 4 3 10 16 16 29 15 13 -1 21 -6 19
-10z m27 -161 c-10 -9 -11 -8 -5 6 3 10 9 15 12 12 3 -3 0 -11 -7 -18z m-96
-27 c3 -5 1 -10 -4 -10 -6 0 -11 5 -11 10 0 6 2 10 4 10 3 0 8 -4 11 -10z m-5
-64 c-7 -7 -13 -7 -20 0 -6 6 -3 10 10 10 13 0 16 -4 10 -10z m-686 -383 c9
-18 12 -33 7 -33 -5 0 -11 8 -14 18 -2 9 -8 26 -12 37 -11 28 0 16 19 -22z
m355 1 c11 7 16 -6 5 -17 -10 -10 -34 5 -34 22 0 13 2 13 9 2 5 -7 14 -10 20
-7z m-1503 -113 c19 -15 36 -19 69 -16 24 3 46 1 49 -4 3 -5 -9 -22 -27 -39
-75 -71 -94 -90 -139 -139 l-47 -52 1 48 c0 26 -7 63 -14 82 -8 19 -18 50 -21
69 -7 33 -5 36 30 52 50 22 70 22 99 -1z m1199 -111 c25 -49 45 -101 45 -115
0 -15 30 -102 66 -195 36 -93 63 -174 59 -179 -8 -14 -35 -14 -35 -1 0 6 -23
70 -51 143 -33 82 -53 151 -55 182 -3 59 -56 189 -78 193 -18 4 -23 62 -6 62
5 0 30 -40 55 -90z m-646 26 c9 -9 30 -27 47 -40 17 -14 31 -31 31 -38 0 -7 4
-22 8 -33 5 -11 5 -17 0 -13 -4 4 -15 2 -23 -5 -12 -9 -16 -9 -19 1 -3 6 -13
12 -24 12 -13 0 -19 -7 -19 -24 0 -14 -5 -28 -10 -31 -6 -4 -10 -12 -8 -18 4
-25 -14 -56 -35 -59 -42 -7 -122 78 -137 144 -17 83 -20 79 63 108 58 21 101
19 126 -4z m478 -123 c4 -9 1 -19 -5 -21 -7 -2 -12 -11 -13 -20 0 -14 -2 -13
-8 3 -9 23 -3 55 10 55 6 0 13 -8 16 -17z m-527 -193 c-19 -13 -30 -13 -30 0
0 6 10 10 23 10 18 0 19 -2 7 -10z m1894 -15 c3 -8 1 -15 -4 -15 -6 0 -10 7
-10 15 0 8 2 15 4 15 2 0 6 -7 10 -15z m-2068 -19 c23 -17 27 -12 -66 -74 -70
-47 -76 -50 -98 -36 -15 10 -28 12 -40 6 -18 -10 -42 -5 -42 8 0 10 67 50 83
50 7 0 39 13 72 30 71 35 66 34 91 16z m744 -92 c11 -12 11 -18 -1 -29 -13
-13 -16 -11 -26 15 -9 24 -9 30 2 30 7 0 18 -7 25 -16z m1430 -24 c0 -5 -2
-10 -4 -10 -3 0 -8 5 -11 10 -3 6 -1 10 4 10 6 0 11 -4 11 -10z m955 0 c3 -5
-1 -10 -10 -10 -9 0 -13 5 -10 10 3 6 8 10 10 10 2 0 7 -4 10 -10z m-2312 -34
c7 4 9 4 5 -1 -4 -4 -1 -17 7 -29 8 -11 15 -26 15 -33 0 -18 -39 -26 -56 -12
-12 10 -13 9 -8 -6 5 -13 4 -16 -5 -11 -7 5 -10 15 -7 23 3 8 -1 21 -9 29 -17
17 -21 39 -5 29 6 -3 10 -1 10 4 0 6 7 11 15 11 8 0 16 8 16 18 1 11 3 9 6 -6
3 -14 9 -20 16 -16z m-908 -6 c-3 -5 -14 -10 -23 -10 -15 0 -15 2 -2 10 20 13
33 13 25 0z m2545 -8 c0 -4 -9 -8 -19 -8 -11 0 -17 4 -15 8 3 4 12 8 20 8 8 0
14 -4 14 -8z m-2477 -9 c-7 -2 -21 -2 -30 0 -10 3 -4 5 12 5 17 0 24 -2 18 -5z
m2322 -3 c3 -6 -1 -7 -9 -4 -18 7 -21 14 -7 14 6 0 13 -4 16 -10z m-1400 -130
c-5 -9 -108 -50 -124 -50 -5 0 -7 8 -4 18 3 12 23 23 61 34 57 15 77 14 67 -2z
m-3775 -774 c0 -3 -4 -8 -10 -11 -5 -3 -10 -1 -10 4 0 6 5 11 10 11 6 0 10 -2
10 -4z m1959 -220 c-20 -34 -49 -65 -49 -52 0 12 53 86 61 86 5 0 -1 -15 -12
-34z m-717 -1093 c-6 -2 -9 -10 -6 -15 4 -7 2 -8 -5 -4 -13 9 -5 26 12 25 9 0
8 -2 -1 -6z m-95 -156 c4 -6 1 -7 -8 -2 -11 7 -12 6 -4 -6 8 -11 4 -20 -17
-41 -31 -30 -43 -23 -28 17 7 17 7 24 0 20 -6 -3 -10 -4 -10 -1 0 2 -2 11 -5
18 -4 11 3 13 30 10 19 -2 38 -9 42 -15z m117 -736 c11 -17 -15 -71 -35 -71
-24 0 -26 36 -2 62 18 20 29 23 37 9z"/>
<path d="M390 7619 c0 -5 5 -7 10 -4 6 3 10 8 10 11 0 2 -4 4 -10 4 -5 0 -10
-5 -10 -11z"/>
<path d="M101 7524 c0 -11 3 -14 6 -6 3 7 2 16 -1 19 -3 4 -6 -2 -5 -13z"/>
<path d="M370 7460 c0 -11 4 -20 9 -20 5 0 7 9 4 20 -3 11 -7 20 -9 20 -2 0
-4 -9 -4 -20z"/>
<path d="M129 7253 c-13 -17 -13 -17 6 -3 11 8 22 16 24 17 2 2 0 3 -6 3 -6 0
-17 -8 -24 -17z"/>
<path d="M182 7250 c0 -14 2 -19 5 -12 2 6 2 18 0 25 -3 6 -5 1 -5 -13z"/>
<path d="M711 6464 c0 -11 3 -14 6 -6 3 7 2 16 -1 19 -3 4 -6 -2 -5 -13z"/>
<path d="M6660 5119 c0 -5 5 -7 10 -4 6 3 10 8 10 11 0 2 -4 4 -10 4 -5 0 -10
-5 -10 -11z"/>
<path d="M8895 7991 c3 -5 1 -12 -5 -16 -5 -3 -10 -15 -10 -26 0 -11 -4 -17
-10 -14 -5 3 -11 -3 -11 -14 -1 -12 -3 -25 -4 -31 -1 -5 -3 -15 -4 -21 0 -5
-5 -7 -11 -4 -5 3 -7 0 -4 -8 2 -7 -3 -36 -12 -63 -22 -63 -24 -216 -4 -265
44 -105 157 -183 265 -182 100 1 202 7 210 13 6 4 17 7 25 7 33 1 73 13 123
37 53 27 126 76 112 76 -4 0 1 8 11 18 31 27 60 83 74 142 13 56 9 174 -8 207
-5 10 -16 34 -25 53 -8 20 -27 50 -42 68 l-27 32 -324 0 c-198 0 -323 -4 -319
-9z"/>
<path d="M10870 7982 c0 -10 -3 -22 -7 -26 -4 -4 -9 -19 -10 -34 -2 -15 -8
-40 -13 -57 -5 -16 -11 -55 -15 -86 -7 -71 -12 -97 -24 -129 -10 -26 -20 -74
-27 -125 -2 -16 -7 -37 -11 -45 -4 -8 -8 -22 -9 -30 -8 -64 -17 -107 -23 -120
-5 -8 -12 -33 -15 -55 -4 -22 -14 -60 -22 -83 -8 -24 -16 -56 -18 -70 -2 -15
-6 -34 -9 -42 -2 -8 -10 -57 -17 -109 -13 -99 -17 -126 -24 -164 -2 -12 -7
-40 -11 -62 -3 -22 -13 -65 -21 -95 -9 -30 -19 -71 -24 -90 -5 -19 -15 -61
-24 -92 -8 -32 -12 -58 -9 -58 3 0 0 -7 -7 -15 -7 -9 -10 -18 -7 -21 3 -3 -1
-24 -8 -47 -34 -110 -46 -163 -65 -297 -32 -222 -53 -275 -150 -367 -72 -70
-74 -71 -117 -78 -21 -3 -49 -7 -61 -10 -12 -2 -22 0 -22 6 0 5 -9 9 -21 9
-11 0 -32 9 -46 19 -14 11 -32 17 -41 14 -9 -3 -14 -3 -10 2 4 4 3 14 -3 22
-6 7 -8 13 -4 13 4 0 2 7 -5 15 -7 8 -17 12 -23 8 -6 -3 -7 -1 -3 6 4 6 1 14
-7 17 -17 6 -30 44 -16 44 19 0 -38 83 -61 89 -22 5 -113 8 -127 3 -14 -4 -6
-16 39 -59 15 -14 25 -30 22 -34 -3 -5 -1 -9 4 -9 5 0 7 -11 4 -25 -4 -21 -1
-24 14 -19 16 5 16 4 4 -5 -13 -9 -13 -14 -2 -32 8 -11 9 -18 3 -14 -24 14 2
-42 27 -61 8 -6 12 -16 8 -22 -3 -6 6 -15 21 -20 18 -7 22 -11 11 -11 -22 -1
-24 -19 -3 -27 8 -4 12 -11 8 -17 -3 -5 -1 -7 4 -4 6 4 16 0 23 -8 10 -12 10
-18 1 -29 -10 -12 -8 -15 11 -18 15 -2 24 -11 26 -25 2 -13 10 -23 18 -23 11
0 13 -6 9 -20 -9 -28 4 -68 16 -49 6 9 9 10 9 2 0 -6 7 -19 16 -27 14 -15 14
-16 -1 -16 -15 0 -15 -1 -1 -16 20 -19 20 -25 2 -18 -18 7 -31 -13 -18 -29 6
-7 13 -31 17 -54 5 -35 3 -43 -10 -43 -8 0 -16 -10 -17 -22 -2 -37 -3 -42 -12
-57 -6 -10 -5 -12 2 -7 8 5 12 -1 12 -18 0 -15 -7 -26 -17 -29 -13 -3 -12 -5
5 -6 13 0 20 -5 17 -11 -4 -6 -10 -8 -14 -6 -4 3 -12 -3 -18 -13 -9 -14 -8
-18 3 -18 8 0 14 5 14 11 0 5 7 1 15 -10 14 -18 14 -18 8 4 -3 12 -1 22 3 22
5 0 9 -13 9 -29 1 -24 -2 -28 -15 -21 -12 6 -17 5 -17 -6 0 -7 10 -14 21 -15
16 0 17 -2 6 -7 -9 -4 -15 -21 -15 -42 0 -19 -4 -38 -10 -42 -6 -5 -3 -8 7 -8
15 0 15 -3 3 -27 -11 -21 -12 -29 -2 -36 7 -5 3 -7 -13 -3 -24 5 -25 5 -5 -11
20 -15 20 -15 -2 -10 -13 3 -23 2 -23 -3 0 -4 11 -11 25 -14 13 -3 22 -12 20
-19 -10 -29 -13 -67 -5 -72 5 -3 7 4 5 15 -2 11 0 18 5 15 4 -3 7 -13 5 -23
-2 -9 -4 -21 -4 -25 -1 -5 -5 -5 -11 -2 -6 3 -7 -1 -4 -9 4 -10 1 -16 -7 -16
-10 0 -10 -3 -1 -12 8 -8 8 -17 1 -30 -5 -10 -7 -24 -3 -30 4 -7 3 -8 -4 -4
-7 4 -12 2 -12 -5 0 -6 8 -9 20 -6 17 4 20 0 20 -24 0 -31 -9 -36 -28 -17 -9
9 -12 9 -12 0 0 -6 8 -16 18 -21 15 -9 15 -12 2 -21 -13 -9 -13 -10 0 -11 8
-1 17 -1 20 -1 3 0 6 -8 6 -18 0 -18 -10 -20 -36 -6 -8 4 -5 -2 8 -13 21 -18
21 -20 5 -30 -12 -7 -13 -10 -4 -11 8 0 11 -6 7 -16 -4 -10 -2 -13 7 -8 6 4 5
-1 -4 -12 -9 -10 -24 -33 -32 -50 -15 -28 -14 -32 1 -49 12 -13 12 -15 2 -8
-10 8 -21 9 -30 3 -10 -7 -11 -10 -2 -10 19 0 14 -38 -8 -57 -11 -10 -20 -22
-20 -28 0 -5 5 -3 10 5 7 12 9 10 7 -7 0 -13 -7 -25 -15 -28 -7 -2 -10 0 -7 5
3 6 1 10 -4 10 -11 0 -15 -26 -12 -62 1 -10 -7 -18 -21 -21 l-23 -4 23 -2 c23
-1 29 -15 12 -26 -7 -4 -6 -13 1 -27 6 -11 7 -23 3 -27 -5 -3 -11 -17 -12 -31
-2 -14 -11 -33 -19 -42 -13 -15 -14 -18 -2 -18 12 0 12 -2 0 -9 -7 -5 -10 -14
-7 -20 4 -6 2 -11 -4 -11 -6 0 -9 -4 -5 -9 3 -5 0 -13 -6 -16 -5 -4 -8 -13 -5
-20 3 -9 -2 -11 -16 -7 -17 4 -20 2 -15 -11 4 -11 -1 -18 -14 -22 -14 -5 -18
-12 -14 -25 4 -12 -3 -27 -18 -42 -15 -15 -23 -33 -20 -47 3 -21 1 -22 -12
-11 -13 11 -16 11 -13 -1 2 -8 7 -17 12 -21 6 -4 -2 -10 -17 -13 -15 -4 -24
-11 -21 -17 3 -5 -2 -16 -12 -23 -18 -14 -18 -14 5 -15 24 0 24 -1 6 -14 -15
-11 -17 -17 -7 -28 9 -12 9 -15 -3 -15 -8 0 -11 5 -8 11 3 6 0 5 -8 -3 -10
-10 -11 -15 -2 -18 7 -2 9 -11 6 -20 -5 -12 -2 -14 8 -9 8 4 5 0 -6 -9 -15
-12 -17 -18 -7 -24 14 -8 6 -41 -12 -53 -8 -5 -7 -14 2 -29 12 -19 12 -21 -2
-16 -19 7 -21 -4 -5 -20 9 -9 6 -11 -12 -7 -13 2 -18 1 -11 -2 10 -5 8 -12
-10 -31 -20 -22 -21 -23 -3 -17 17 7 16 4 -5 -17 -30 -29 -36 -49 -18 -62 9
-6 8 -7 -4 -3 -13 4 -18 0 -18 -15 0 -15 -5 -19 -16 -15 -8 3 -12 2 -9 -4 3
-6 1 -10 -5 -10 -6 0 -8 -10 -4 -26 4 -17 2 -29 -7 -34 -10 -7 -7 -15 14 -36
15 -15 27 -24 27 -20 0 3 9 -3 20 -14 11 -11 20 -24 20 -30 0 -5 3 -10 8 -10
4 0 25 -16 47 -35 22 -20 83 -69 135 -109 52 -40 141 -108 198 -152 57 -43
154 -113 217 -154 195 -128 211 -141 305 -230 20 -19 59 -53 85 -75 27 -22 69
-58 93 -80 25 -22 53 -46 64 -53 10 -8 31 -25 46 -39 15 -14 43 -37 62 -52 19
-14 37 -29 41 -33 3 -4 35 -29 71 -55 56 -41 170 -130 243 -192 11 -9 49 -37
85 -63 36 -26 110 -85 165 -133 55 -47 107 -89 115 -92 20 -8 84 -56 88 -65 2
-5 8 -8 14 -8 11 0 172 -110 263 -180 33 -26 94 -70 135 -100 41 -29 82 -59
90 -66 57 -51 145 -114 160 -114 5 0 10 -4 10 -9 0 -10 39 -27 53 -23 5 1 6
-1 4 -5 -3 -5 21 -23 54 -41 l59 -33 0 3681 0 3680 -815 0 c-784 0 -815 -1
-815 -18z m-963 -2468 c-3 -3 -12 -4 -19 -1 -8 3 -5 6 6 6 11 1 17 -2 13 -5z
m43 -59 c0 -8 -4 -15 -10 -15 -5 0 -7 7 -4 15 4 8 8 15 10 15 2 0 4 -7 4 -15z
m64 -110 c3 -8 1 -15 -4 -15 -6 0 -10 7 -10 15 0 8 2 15 4 15 2 0 6 -7 10 -15z
m11 -275 c-3 -5 -12 -10 -18 -10 -7 0 -6 4 3 10 19 12 23 12 15 0z m-2 -34 c4
-10 1 -13 -8 -9 -8 3 -12 9 -9 14 7 12 11 11 17 -5z m5 -196 c-7 -10 -14 -18
-15 -16 -6 6 9 36 18 36 5 0 4 -9 -3 -20z"/>
<path d="M8465 7910 c-3 -5 -1 -10 4 -10 6 0 11 5 11 10 0 6 -2 10 -4 10 -3 0
-8 -4 -11 -10z"/>
<path d="M480 7749 c0 -5 5 -7 10 -4 6 3 10 8 10 11 0 2 -4 4 -10 4 -5 0 -10
-5 -10 -11z"/>
<path d="M580 7370 c0 -5 5 -10 11 -10 5 0 7 5 4 10 -3 6 -8 10 -11 10 -2 0
-4 -4 -4 -10z"/>
<path d="M3244 6893 c4 -7 -11 -17 -43 -28 -27 -9 -57 -25 -67 -36 -17 -19
-17 -19 27 -4 58 21 160 68 155 72 -2 2 -15 -1 -28 -6 -18 -7 -29 -6 -38 2
-10 9 -11 9 -6 0z"/>
<path d="M3381 6841 c-1 -24 2 -32 9 -25 7 7 7 19 1 35 -9 23 -10 22 -10 -10z"/>
<path d="M3213 6823 c-45 -21 -81 -39 -79 -40 4 -4 132 44 165 62 53 29 -7 13
-86 -22z"/>
<path d="M3252 6803 c-45 -19 -81 -37 -79 -40 7 -7 146 49 158 63 15 18 17 19
-79 -23z"/>
<path d="M3212 6749 c-51 -23 -91 -43 -89 -45 4 -4 165 58 193 75 46 26 -17 8
-104 -30z"/>
<path d="M3251 6730 c-109 -45 -147 -73 -51 -37 104 39 137 54 144 66 9 14 15
16 -93 -29z"/>
<path d="M3265 6699 c-38 -17 -81 -35 -94 -40 -13 -5 -21 -12 -18 -15 7 -7
158 55 177 72 20 19 15 18 -65 -17z"/>
<path d="M3551 6694 c0 -11 3 -14 6 -6 3 7 2 16 -1 19 -3 4 -6 -2 -5 -13z"/>
<path d="M3255 6659 c-76 -33 -108 -54 -59 -40 36 11 144 61 144 67 0 8 -16 3
-85 -27z"/>
<path d="M922 6650 c0 -14 2 -19 5 -12 2 6 2 18 0 25 -3 6 -5 1 -5 -13z"/>
<path d="M3222 6608 c-51 -22 -90 -43 -88 -45 6 -6 158 55 180 72 32 24 6 17
-92 -27z"/>
<path d="M3130 6600 c-9 -6 -10 -10 -3 -10 6 0 15 5 18 10 8 12 4 12 -15 0z"/>
<path d="M3225 6570 c-33 -15 -55 -28 -50 -29 6 0 37 13 70 29 33 15 56 28 50
29 -5 0 -37 -13 -70 -29z"/>
<path d="M3380 6564 c0 -31 2 -35 15 -24 13 10 15 9 15 -11 0 -17 3 -20 9 -10
5 8 3 24 -6 42 -22 43 -33 44 -33 3z"/>
<path d="M3263 6554 c-29 -13 -53 -25 -53 -27 0 -8 50 5 56 14 3 5 13 9 22 9
9 0 26 7 36 15 30 23 0 17 -61 -11z"/>
<path d="M3320 6540 c-8 -5 -58 -26 -110 -47 -94 -36 -126 -53 -102 -53 12 0
195 79 229 99 10 6 14 10 8 11 -5 0 -17 -5 -25 -10z"/>
<path d="M3175 6510 c-3 -6 1 -7 9 -4 18 7 21 14 7 14 -6 0 -13 -4 -16 -10z"/>
<path d="M3275 6486 c-27 -14 -45 -25 -39 -25 13 -1 104 38 104 44 0 9 -15 5
-65 -19z"/>
<path d="M3281 6454 c-29 -14 -51 -27 -49 -30 6 -6 118 42 118 50 0 9 -12 6
-69 -20z"/>
<path d="M3158 6434 c-16 -8 -28 -17 -28 -19 0 -5 70 22 79 30 10 11 -26 3
-51 -11z"/>
<path d="M3235 6396 c-49 -25 -85 -45 -78 -45 6 -1 53 19 105 43 51 25 86 45
78 45 -8 0 -55 -19 -105 -43z"/>
<path d="M3225 6354 c-49 -24 -85 -43 -80 -41 27 6 114 44 150 64 66 38 26 25
-70 -23z"/>
<path d="M3243 6330 c-89 -42 -114 -62 -35 -29 103 44 152 71 125 68 -5 0 -45
-18 -90 -39z"/>
<path d="M6521 6344 c0 -11 3 -14 6 -6 3 7 2 16 -1 19 -3 4 -6 -2 -5 -13z"/>
<path d="M3404 6332 c-18 -12 -23 -50 -8 -63 15 -12 17 -9 27 38 6 25 -3 36
-19 25z"/>
<path d="M3260 6300 c-30 -16 -51 -29 -47 -30 12 0 117 49 117 55 0 9 -15 4
-70 -25z"/>
<path d="M3315 6290 c-3 -5 -2 -10 4 -10 5 0 13 5 16 10 3 6 2 10 -4 10 -5 0
-13 -4 -16 -10z"/>
<path d="M3215 6245 c-38 -19 -59 -32 -45 -29 33 8 130 51 130 58 0 11 -15 6
-85 -29z"/>
<path d="M3330 6260 c-9 -6 -10 -10 -3 -10 6 0 15 5 18 10 8 12 4 12 -15 0z"/>
<path d="M3260 6195 c-36 -19 -62 -34 -58 -34 10 -1 98 38 121 54 35 25 6 15
-63 -20z"/>
<path d="M3265 6160 c-3 -6 1 -7 9 -4 18 7 21 14 7 14 -6 0 -13 -4 -16 -10z"/>
<path d="M3193 6129 c-24 -11 -43 -21 -43 -24 0 -6 63 17 85 32 28 19 7 15
-42 -8z"/>
<path d="M3255 6121 c-22 -11 -36 -20 -32 -20 12 -1 77 27 77 33 0 8 0 8 -45
-13z"/>
<path d="M3183 6090 c-13 -5 -23 -11 -23 -14 0 -7 40 6 46 15 6 10 6 10 -23
-1z"/>
<path d="M3220 6070 c-19 -11 -31 -19 -27 -20 12 0 77 28 77 34 0 10 -14 6
-50 -14z"/>
<path d="M3242 6048 c-24 -11 -42 -22 -39 -24 5 -6 87 33 87 41 0 6 4 7 -48
-17z"/>
<path d="M3334 6054 c-18 -14 -18 -15 4 -4 12 6 22 13 22 15 0 8 -5 6 -26 -11z"/>
<path d="M3390 6052 c0 -20 36 -46 45 -32 9 14 -13 50 -30 50 -8 0 -15 -8 -15
-18z"/>
<path d="M3230 6005 c-14 -8 -20 -14 -15 -14 6 0 21 6 35 14 14 8 21 14 15 14
-5 0 -21 -6 -35 -14z"/>
<path d="M3260 5985 c-36 -19 -60 -34 -55 -34 6 0 39 15 75 34 36 19 61 34 55
34 -5 0 -39 -15 -75 -34z"/>
<path d="M7480 5970 c0 -5 5 -10 11 -10 5 0 7 5 4 10 -3 6 -8 10 -11 10 -2 0
-4 -4 -4 -10z"/>
<path d="M3218 5897 c-21 -11 -36 -22 -34 -24 5 -5 86 35 86 42 0 9 -14 4 -52
-18z"/>
<path d="M9405 5880 c-3 -6 1 -7 9 -4 18 7 21 14 7 14 -6 0 -13 -4 -16 -10z"/>
<path d="M3407 5853 c-12 -11 -7 -77 7 -96 13 -16 14 -16 20 9 8 29 -1 67 -14
59 -4 -3 -6 4 -3 15 5 20 2 25 -10 13z"/>
<path d="M3203 5820 c-13 -5 -23 -12 -23 -15 0 -9 16 -5 36 10 22 16 19 18
-13 5z"/>
<path d="M3240 5770 c-8 -5 -10 -10 -5 -10 6 0 17 5 25 10 8 5 11 10 5 10 -5
0 -17 -5 -25 -10z"/>
<path d="M7230 5754 c0 -8 5 -12 10 -9 6 3 10 10 10 16 0 5 -4 9 -10 9 -5 0
-10 -7 -10 -16z"/>
<path d="M6740 5710 c0 -5 5 -10 10 -10 6 0 10 5 10 10 0 6 -4 10 -10 10 -5 0
-10 -4 -10 -10z"/>
<path d="M6871 5664 c0 -11 3 -14 6 -6 3 7 2 16 -1 19 -3 4 -6 -2 -5 -13z"/>
<path d="M8950 5670 c0 -6 7 -10 15 -10 8 0 15 2 15 4 0 2 -7 6 -15 10 -8 3
-15 1 -15 -4z"/>
<path d="M7230 5640 c-13 -8 -13 -10 0 -10 11 0 11 -3 2 -12 -7 -7 -12 -16
-12 -22 0 -17 20 9 25 32 4 25 5 25 -15 12z"/>
<path d="M7365 5600 c-3 -5 -1 -10 4 -10 6 0 11 5 11 10 0 6 -2 10 -4 10 -3 0
-8 -4 -11 -10z"/>
<path d="M3410 5555 c0 -23 6 -38 15 -41 10 -4 13 -13 10 -24 -3 -10 -2 -21 3
-24 10 -6 15 57 6 97 -8 41 -34 35 -34 -8z"/>
<path d="M7320 5582 c0 -6 6 -13 13 -15 10 -4 10 -6 0 -6 -7 -1 -13 -5 -13
-11 0 -17 15 -11 29 13 7 12 10 19 6 15 -5 -4 -14 -3 -22 3 -8 8 -13 8 -13 1z"/>
<path d="M7414 5549 c-19 -22 -19 -22 4 -8 12 8 22 17 22 21 0 12 -6 9 -26
-13z"/>
<path d="M7391 5504 c0 -11 3 -14 6 -6 3 7 2 16 -1 19 -3 4 -6 -2 -5 -13z"/>
<path d="M7390 5395 c-8 -9 -8 -15 -2 -15 12 0 26 19 19 26 -2 2 -10 -2 -17
-11z"/>
<path d="M3416 5355 c-10 -28 -7 -55 9 -61 8 -4 15 -12 15 -20 0 -8 -7 -14
-15 -14 -22 0 -18 -23 6 -38 19 -12 20 -11 14 7 -3 12 -2 21 3 21 13 0 2 92
-13 108 -10 11 -13 11 -19 -3z"/>
<path d="M7267 5323 c-4 -3 -7 -13 -7 -22 1 -13 3 -13 11 2 11 19 8 33 -4 20z"/>
<path d="M8660 5284 c0 -17 17 -36 24 -26 3 5 -1 15 -9 22 -8 7 -15 9 -15 4z"/>
<path d="M3430 5079 c0 -11 5 -17 10 -14 6 3 10 13 10 21 0 8 -4 14 -10 14 -5
0 -10 -9 -10 -21z"/>
<path d="M7215 5070 c-3 -5 -1 -10 4 -10 6 0 11 5 11 10 0 6 -2 10 -4 10 -3 0
-8 -4 -11 -10z"/>
<path d="M7356 5059 c2 -4 0 -10 -6 -14 -6 -4 -8 -11 -4 -16 3 -6 12 -3 20 8
17 23 17 30 -1 30 -8 0 -12 -4 -9 -8z"/>
<path d="M6567 5020 c-9 -11 -16 -20 -14 -21 28 -9 37 -5 37 17 0 29 -1 29
-23 4z"/>
<path d="M6615 5030 c3 -5 8 -10 11 -10 2 0 4 5 4 10 0 6 -5 10 -11 10 -5 0
-7 -4 -4 -10z"/>
<path d="M8796 4920 c4 -14 11 -26 15 -28 5 -2 9 -14 9 -27 0 -22 11 -48 40
-92 12 -18 17 -20 30 -10 13 10 13 10 2 -5 -11 -14 -5 -27 42 -94 31 -42 56
-81 56 -86 0 -5 4 -6 10 -3 5 3 7 0 4 -8 -3 -8 2 -17 11 -21 9 -3 13 -10 10
-16 -3 -5 -1 -10 5 -10 6 0 8 -4 5 -10 -10 -17 5 -11 27 10 12 11 18 20 13 20
-5 0 0 6 10 14 10 7 16 19 13 27 -3 8 -1 25 5 39 16 41 16 49 -3 55 -10 3 -28
15 -41 27 -17 15 -19 19 -6 15 21 -8 22 3 2 29 -15 19 -15 19 -9 -1 6 -20 5
-20 -10 -1 -14 18 -21 15 -17 -7 1 -5 -3 -5 -9 -2 -6 4 -9 13 -7 20 3 6 -3 19
-14 28 -20 17 -27 9 -9 -9 7 -7 4 -10 -12 -8 -13 1 -24 3 -26 3 -1 1 5 12 14
26 10 15 12 25 5 25 -6 0 -11 -7 -11 -16 0 -8 -5 -12 -11 -9 -6 4 -8 14 -5 22
3 8 1 11 -4 8 -6 -3 -10 -1 -10 4 0 6 -11 11 -25 11 -14 0 -25 5 -25 10 0 6
-9 10 -20 10 -22 0 -28 25 -7 33 9 4 9 6 -1 6 -8 1 -23 11 -33 24 l-20 22 7
-25z m112 -115 c-3 -3 -9 2 -12 12 -6 14 -5 15 5 6 7 -7 10 -15 7 -18z m192
-152 c0 -5 -4 -14 -9 -21 -6 -10 -10 -10 -21 3 -11 13 -10 14 5 9 13 -5 16 -4
11 4 -4 7 -2 12 3 12 6 0 11 -3 11 -7z m-20 -83 c0 -5 -5 -10 -11 -10 -5 0 -7
5 -4 10 3 6 8 10 11 10 2 0 4 -4 4 -10z"/>
<path d="M8820 4932 c0 -5 7 -13 16 -16 10 -4 14 -1 12 6 -5 15 -28 23 -28 10z"/>
<path d="M6860 4910 c20 -13 33 -13 25 0 -3 6 -14 10 -23 10 -15 0 -15 -2 -2
-10z"/>
<path d="M9967 4877 c-3 -9 1 -21 9 -27 11 -10 14 -10 14 1 0 8 -4 20 -9 27
-7 11 -9 11 -14 -1z"/>
<path d="M6626 4853 c-6 -14 -5 -15 5 -6 7 7 10 15 7 18 -3 3 -9 -2 -12 -12z"/>
<path d="M6480 4845 c0 -9 6 -12 15 -9 8 4 15 10 15 15 0 5 -7 9 -15 9 -8 0
-15 -7 -15 -15z"/>
<path d="M6761 4853 c0 -6 -4 -20 -7 -30 -5 -14 -4 -15 5 -7 7 7 11 20 8 30
-3 11 -5 14 -6 7z"/>
<path d="M9936 4842 c-3 -5 1 -9 9 -9 8 0 12 4 9 9 -3 4 -7 8 -9 8 -2 0 -6 -4
-9 -8z"/>
<path d="M3000 4800 c0 -6 10 -24 22 -40 24 -34 37 -25 30 20 -3 24 -9 30 -28
30 -13 0 -24 -5 -24 -10z"/>
<path d="M9975 4761 c-3 -5 -2 -12 3 -15 5 -3 9 1 9 9 0 17 -3 19 -12 6z"/>
<path d="M9087 4719 c7 -7 15 -10 18 -7 3 3 -2 9 -12 12 -14 6 -15 5 -6 -5z"/>
<path d="M6636 4693 c-4 -9 -2 -21 4 -27 7 -7 10 -2 10 17 0 31 -5 34 -14 10z"/>
<path d="M2995 4671 c-3 -11 -5 -56 -3 -100 2 -64 -1 -85 -14 -97 -15 -16 -19
-13 -48 35 -32 51 -60 67 -60 33 0 -10 14 -31 31 -48 17 -16 46 -52 64 -80 18
-28 47 -67 65 -87 l32 -37 37 32 c20 18 75 62 124 96 48 35 87 70 87 78 0 18
-4 16 -85 -41 -75 -53 -143 -88 -155 -80 -32 20 26 91 115 144 52 31 105 81
105 99 0 17 -23 4 -105 -59 -61 -46 -103 -63 -119 -50 -8 6 -11 37 -10 81 1
51 -2 75 -13 85 -20 21 -40 19 -48 -4z"/>
<path d="M9930 4650 c6 -11 15 -20 20 -20 6 0 2 9 -7 20 -10 11 -19 20 -21 20
-1 0 2 -9 8 -20z"/>
<path d="M9697 4585 c-12 -11 -17 -12 -20 -2 -3 6 -4 2 -4 -10 1 -17 5 -20 18
-13 9 5 18 7 21 5 2 -2 4 5 5 15 2 24 -1 25 -20 5z"/>
<path d="M9750 4586 c0 -2 7 -7 16 -10 8 -3 12 -2 9 4 -6 10 -25 14 -25 6z"/>
<path d="M6960 4550 c0 -5 5 -10 11 -10 5 0 7 5 4 10 -3 6 -8 10 -11 10 -2 0
-4 -4 -4 -10z"/>
<path d="M9634 4534 c4 -28 2 -31 -16 -26 -12 3 -19 1 -15 -4 3 -6 2 -16 -4
-24 -6 -10 -9 -11 -9 -2 0 20 -25 14 -49 -12 -20 -21 -21 -25 -6 -39 14 -14
13 -16 -4 -14 -11 0 -17 5 -14 11 3 5 1 6 -5 2 -7 -4 -12 -17 -12 -29 -1 -22
-1 -22 -14 2 -13 23 -13 23 -18 3 -3 -12 -1 -23 4 -24 6 -2 8 -13 4 -26 -4
-12 -11 -20 -15 -18 -4 3 -8 -5 -8 -17 -1 -12 -7 -23 -13 -25 -5 -2 -7 -9 -3
-15 4 -7 8 -16 10 -22 1 -5 4 -20 7 -33 3 -13 1 -20 -5 -17 -5 4 -8 -4 -6 -16
2 -13 9 -25 14 -26 7 -3 8 -17 2 -44 -5 -22 -7 -44 -4 -49 3 -5 -3 -13 -12
-19 -12 -7 -14 -13 -7 -18 6 -5 10 -16 9 -25 -2 -9 3 -19 11 -22 8 -3 14 -1
14 4 0 6 12 10 27 10 30 0 27 9 -6 15 -11 2 -21 -1 -21 -6 0 -6 -4 -8 -9 -5
-11 7 -3 46 9 46 5 0 15 -7 24 -15 19 -19 30 -19 22 1 -3 8 -2 12 4 9 6 -3 10
1 10 9 0 9 -5 16 -11 16 -8 0 -8 4 1 15 6 8 9 19 5 24 -3 7 0 8 9 5 11 -4 16
0 16 10 0 9 8 16 18 15 10 0 12 -3 5 -6 -7 -2 -13 -13 -13 -22 0 -36 14 -29
36 17 13 26 24 44 25 40 1 -5 2 -12 3 -17 2 -15 13 -22 14 -9 3 33 10 52 21
56 9 3 9 7 1 18 -10 10 -7 12 10 9 19 -4 21 -1 17 20 -2 14 0 25 4 25 5 0 9 7
9 15 0 8 4 15 10 15 5 0 7 -6 4 -14 -3 -8 0 -17 7 -22 9 -5 10 -2 6 9 -3 10
-2 17 3 17 6 0 6 10 0 26 -7 16 -7 23 0 19 6 -3 10 -1 10 4 0 6 -4 11 -10 11
-5 0 -10 5 -10 11 0 6 7 9 14 6 10 -4 13 -1 9 8 -3 8 -10 12 -17 8 -6 -3 -5 0
2 8 11 12 14 12 21 0 6 -9 11 -10 15 -2 4 6 2 11 -3 11 -6 0 -10 3 -10 8 3 19
-3 22 -21 12 -14 -7 -20 -7 -20 0 0 5 5 10 11 10 5 0 7 5 3 11 -4 8 1 9 17 4
16 -4 20 -3 10 3 -10 8 -11 14 -1 32 8 16 9 20 1 15 -17 -10 -5 46 11 57 8 6
2 7 -17 3 -16 -3 -36 -6 -42 -7 -7 -1 -13 -5 -13 -9 0 -5 -7 -5 -17 -2 -12 5
-14 3 -9 -8 4 -8 -2 -3 -13 11 l-20 25 3 -31z m-73 -77 c-10 -9 -11 -8 -5 6 3
10 9 15 12 12 3 -3 0 -11 -7 -18z m-74 -379 c-3 -8 -6 -5 -6 6 -1 11 2 17 5
13 3 -3 4 -12 1 -19z"/>
<path d="M9776 4512 c-3 -5 1 -9 9 -9 8 0 12 4 9 9 -3 4 -7 8 -9 8 -2 0 -6 -4
-9 -8z"/>
<path d="M3395 4430 c-3 -5 -1 -10 4 -10 6 0 11 5 11 10 0 6 -2 10 -4 10 -3 0
-8 -4 -11 -10z"/>
<path d="M9017 4429 c7 -7 15 -10 18 -7 3 3 -2 9 -12 12 -14 6 -15 5 -6 -5z"/>
<path d="M3224 4329 c-94 -68 -113 -88 -88 -96 18 -6 204 139 204 159 0 16
-18 6 -116 -63z"/>
<path d="M3385 4190 c-22 -10 -58 -34 -80 -54 -38 -34 -39 -36 -21 -51 20 -15
16 -18 119 69 16 13 27 30 25 38 -3 13 -8 13 -43 -2z"/>
<path d="M9713 4189 c-2 -23 3 -25 10 -4 4 8 3 16 -1 19 -4 3 -9 -4 -9 -15z"/>
<path d="M9441 4144 c0 -11 3 -14 6 -6 3 7 2 16 -1 19 -3 4 -6 -2 -5 -13z"/>
<path d="M8810 4125 c-8 -9 -8 -15 -2 -15 6 0 12 -8 14 -17 3 -13 6 -9 10 10
6 32 -4 43 -22 22z"/>
<path d="M8847 4113 c-12 -12 -7 -43 7 -43 9 0 12 8 8 25 -5 27 -6 28 -15 18z"/>
<path d="M9897 4096 c-15 -12 -16 -14 -2 -20 9 -3 15 0 15 8 0 8 6 17 13 19 6
3 8 6 2 6 -5 0 -18 -6 -28 -13z"/>
<path d="M6011 3891 c-8 -6 -9 -11 -3 -15 6 -3 14 -1 17 5 9 14 2 20 -14 10z"/>
<path d="M6047 3893 c-10 -9 -9 -33 1 -33 4 0 8 9 9 20 2 21 0 24 -10 13z"/>
<path d="M6024 3811 c0 -9 -4 -27 -8 -41 -6 -20 -4 -19 13 8 24 38 26 49 8 49
-7 0 -13 -7 -13 -16z"/>
<path d="M5200 3610 l-22 -22 31 -21 c17 -12 33 -30 36 -39 11 -32 43 -32 80
0 27 24 31 32 18 36 -14 6 -13 10 6 30 16 17 19 25 9 28 -26 9 -68 1 -88 -17
-11 -10 -21 -15 -21 -12 -1 4 -2 12 -3 19 -2 21 -24 20 -46 -2z"/>
<path d="M5894 3612 c-38 -61 -65 -112 -61 -112 8 0 80 120 75 125 -2 2 -8 -4
-14 -13z"/>
<path d="M5932 3600 c-12 -16 -22 -32 -22 -35 0 -6 -125 -216 -193 -323 -22
-35 -41 -61 -44 -58 -2 2 15 39 38 81 34 62 38 75 22 67 -11 -6 -26 -26 -33
-44 -7 -18 -23 -47 -36 -64 -12 -17 -21 -39 -20 -50 2 -10 5 -18 7 -16 2 1 14
5 26 8 12 3 24 12 27 20 3 8 13 11 23 8 15 -5 16 -4 3 5 -13 10 -13 13 1 24 9
7 28 35 42 62 34 68 111 197 158 267 22 31 39 62 39 67 0 19 -16 12 -38 -19z"/>
<path d="M9243 3570 c-3 -11 -10 -17 -17 -14 -6 3 -3 -1 7 -9 22 -18 22 -27
-1 -22 -15 2 -18 -2 -15 -19 4 -17 0 -22 -16 -22 -23 0 -28 11 -8 19 7 4 8 6
1 6 -7 1 -19 -10 -28 -24 -9 -14 -20 -23 -25 -21 -4 3 -8 -1 -8 -8 0 -7 6 -13
13 -13 7 0 10 5 7 10 -4 6 -1 7 7 2 7 -4 16 -2 21 6 6 10 9 10 9 2 0 -7 -12
-19 -27 -27 -20 -11 -23 -15 -11 -16 12 0 15 -5 11 -16 -3 -8 -13 -13 -22 -10
-14 5 -14 4 0 -6 14 -9 13 -13 -8 -34 -13 -13 -21 -29 -17 -35 4 -8 9 -7 15 2
4 7 11 11 14 7 3 -3 -6 -15 -20 -26 -14 -11 -22 -23 -17 -26 5 -3 10 -18 10
-33 0 -31 31 -61 44 -40 5 8 8 7 8 -5 0 -12 5 -15 16 -11 11 4 15 1 12 -13 -2
-10 2 -19 7 -19 6 0 15 -3 20 -6 16 -9 59 17 44 26 -7 5 -18 0 -27 -11 -14
-18 -14 -18 -8 2 5 18 1 23 -21 29 -15 4 -23 9 -16 12 7 2 21 0 31 -6 15 -8
23 -7 33 6 10 12 10 15 2 9 -23 -13 -34 4 -18 26 9 14 11 26 5 33 -7 8 -5 12
5 12 7 0 14 -3 13 -6 0 -3 1 -9 2 -13 6 -18 8 -30 10 -60 l2 -33 7 30 7 30 17
-30 17 -30 -6 29 c-4 18 -2 31 6 36 10 6 10 12 -2 29 -8 11 -18 18 -21 14 -4
-3 -7 1 -7 10 0 10 7 17 15 17 8 0 15 -4 15 -9 0 -5 9 -7 21 -4 14 4 17 8 8
13 -8 6 -5 11 11 20 12 6 19 14 16 17 -3 4 0 13 6 22 10 13 10 14 -1 4 -7 -6
-20 -9 -29 -6 -12 5 -14 1 -10 -15 4 -12 3 -23 0 -23 -38 -7 -48 -5 -47 12 1
10 5 22 10 26 4 5 5 2 1 -4 -4 -8 -1 -13 9 -13 9 0 14 4 10 9 -3 5 4 12 14 16
22 7 20 23 -11 68 -11 15 -17 27 -14 27 3 0 -7 12 -23 28 -24 23 -26 29 -15
40 8 7 14 18 13 25 0 9 -2 9 -6 -1 -2 -6 -10 -9 -15 -6 -7 4 -8 2 -4 -4 4 -7
2 -12 -3 -12 -10 0 -16 21 -12 43 2 16 -11 6 -16 -13z m132 -220 c3 -5 1 -10
-4 -10 -6 0 -11 5 -11 10 0 6 2 10 4 10 3 0 8 -4 11 -10z m-233 -67 c-6 -2 -9
-10 -6 -15 4 -7 2 -8 -5 -4 -13 9 -5 26 12 25 9 0 8 -2 -1 -6z m181 -29 c-4
-13 -26 -11 -30 3 -2 6 4 10 14 9 10 -2 17 -7 16 -12z"/>
<path d="M9302 3510 c7 -11 16 -20 20 -20 5 0 11 0 16 0 13 0 7 33 -7 38 -9 3
-11 0 -6 -9 6 -11 5 -12 -6 -1 -20 19 -31 14 -17 -8z"/>
<path d="M6097 3495 c-3 -11 -11 -27 -16 -35 -6 -8 -17 -31 -25 -50 -8 -19
-24 -50 -36 -67 l-22 -33 34 12 c18 6 34 12 36 13 7 6 42 150 40 164 -3 13 -5
12 -11 -4z"/>
<path d="M5800 3451 c-11 -23 -18 -41 -16 -41 8 0 48 71 43 76 -3 3 -15 -12
-27 -35z"/>
<path d="M9377 3417 c-3 -8 1 -14 8 -14 7 0 11 6 8 14 -3 7 -6 13 -8 13 -2 0
-5 -6 -8 -13z"/>
<path d="M5766 3383 c-6 -14 -5 -15 5 -6 7 7 10 15 7 18 -3 3 -9 -2 -12 -12z"/>
<path d="M9363 3255 c0 -8 4 -12 9 -9 5 3 6 10 3 15 -9 13 -12 11 -12 -6z"/>
<path d="M5384 3226 c-9 -52 0 -66 19 -29 16 30 14 63 -4 63 -4 0 -11 -16 -15
-34z"/>
<path d="M5466 3228 c-15 -22 -15 -24 14 -51 16 -15 42 -30 58 -33 25 -5 28
-3 27 19 0 29 -13 46 -54 70 -29 17 -30 17 -45 -5z"/>
<path d="M5720 3161 c0 -5 5 -13 10 -16 6 -3 10 -2 10 4 0 5 -4 13 -10 16 -5
3 -10 2 -10 -4z"/>
<path d="M9273 3140 c2 -8 12 -16 23 -17 13 -2 15 -1 4 4 -8 3 -19 11 -23 17
-6 7 -7 6 -4 -4z"/>
<path d="M9334 3124 c-18 -14 -18 -14 6 -3 31 14 36 19 24 19 -6 0 -19 -7 -30
-16z"/>
<path d="M5626 3113 c-6 -14 -5 -15 5 -6 7 7 10 15 7 18 -3 3 -9 -2 -12 -12z"/>
<path d="M5475 2929 c-4 -6 -5 -12 -2 -15 2 -3 7 2 10 11 7 17 1 20 -8 4z"/>
<path d="M4680 2715 c-13 -14 -21 -27 -18 -31 3 -3 16 9 28 25 26 37 22 40
-10 6z"/>
<path d="M1308 2518 c5 -5 16 -8 23 -6 8 3 3 7 -10 11 -17 4 -21 3 -13 -5z"/>
<path d="M7285 1970 c3 -4 -3 -10 -13 -13 -9 -2 -26 -8 -36 -13 -15 -6 -18 -4
-14 8 5 11 0 16 -18 16 -14 0 -26 -8 -29 -19 -4 -11 -11 -19 -16 -19 -13 0
-11 -54 3 -68 9 -9 15 -9 27 1 12 10 13 9 6 -2 -6 -11 -3 -13 19 -7 14 3 26 2
26 -2 0 -5 14 -8 31 -6 18 2 28 0 24 -6 -3 -6 -1 -10 4 -10 6 0 11 5 11 11 0
7 9 9 24 5 20 -5 25 -1 29 19 2 14 1 28 -4 31 -4 2 -6 11 -3 19 3 7 1 22 -5
32 -8 14 -11 15 -11 3 -1 -11 -4 -10 -13 5 -7 11 -20 21 -29 21 -10 1 -16 -2
-13 -6z"/>
<path d="M7575 1820 c3 -5 -13 -28 -35 -51 -22 -24 -40 -46 -40 -50 0 -3 -10
-17 -22 -31 -13 -13 -34 -40 -48 -58 -14 -19 -38 -45 -54 -59 -66 -60 -76 -71
-76 -82 0 -6 -8 -18 -17 -26 -11 -8 -12 -11 -3 -7 13 7 13 6 0 -12 -27 -35
-38 -43 -45 -36 -5 4 -5 2 -1 -5 3 -6 -2 -16 -11 -22 -10 -6 -14 -11 -10 -11
4 0 -4 -11 -19 -25 -26 -24 -28 -24 -46 -9 -13 13 -18 14 -18 4 0 -7 -3 -10
-7 -7 -3 4 -13 -3 -21 -15 -9 -12 -12 -23 -6 -25 5 -2 16 -8 24 -14 11 -8 12
-12 2 -16 -7 -2 -17 -14 -23 -25 -10 -18 -9 -20 5 -15 10 4 15 3 11 -3 -3 -6
-16 -10 -27 -10 -12 0 -18 -3 -15 -6 6 -6 -27 -62 -44 -74 -4 -3 -9 -14 -11
-25 -2 -11 -10 -19 -18 -17 -11 3 -11 0 1 -14 8 -10 9 -15 3 -11 -6 3 -24 -3
-42 -13 -22 -14 -32 -16 -36 -7 -3 9 -7 8 -15 -3 -7 -10 -11 -11 -11 -3 0 15
31 53 42 53 5 0 8 -7 8 -15 0 -9 6 -12 15 -9 14 6 13 8 -1 19 -23 16 -9 38 16
25 11 -6 21 -6 24 -1 3 5 -1 11 -9 15 -8 3 -15 13 -15 21 0 10 5 14 13 10 6
-4 3 1 -7 9 -11 9 -15 16 -10 16 5 0 11 12 12 27 1 15 9 31 17 36 8 4 15 16
16 25 0 14 2 13 9 -3 8 -18 9 -18 9 -2 1 23 32 90 38 83 3 -2 0 -14 -7 -26
-15 -27 -5 -55 20 -57 26 -2 26 14 1 22 -19 6 -19 7 2 39 12 19 24 34 27 34 3
0 14 0 25 1 18 1 19 2 3 12 -24 13 -23 23 5 53 31 33 31 56 -1 56 -20 0 -24
-4 -20 -22 2 -13 -4 -30 -14 -40 -17 -17 -17 -16 -12 15 3 18 7 37 9 44 2 6
-5 11 -15 10 -10 -1 -17 -4 -14 -9 2 -4 -5 -12 -17 -18 -17 -10 -20 -9 -13 2
15 23 14 41 -1 28 -10 -8 -14 -7 -18 2 -4 10 -6 10 -6 1 -1 -7 -9 -13 -19 -13
-11 0 -26 -8 -35 -17 -15 -18 -17 -22 -17 -44 0 -5 -4 -8 -9 -4 -5 3 -12 -3
-16 -14 -3 -10 -14 -29 -25 -42 -11 -13 -23 -29 -28 -34 -5 -6 -6 -17 -4 -24
3 -10 0 -12 -11 -8 -23 9 -43 -19 -27 -38 11 -13 10 -14 -4 -9 -9 4 -16 1 -16
-6 0 -18 -31 -80 -39 -76 -3 1 -19 -11 -36 -27 -16 -17 -24 -27 -16 -22 10 5
12 4 7 -3 -4 -7 -15 -12 -24 -12 -15 0 -15 -2 -2 -10 13 -8 12 -10 -2 -10 -11
0 -18 -8 -18 -21 0 -11 -4 -17 -10 -14 -5 3 -10 1 -10 -5 0 -6 -4 -9 -9 -5 -5
3 -13 0 -17 -6 -4 -8 -3 -9 4 -5 7 4 12 2 12 -3 0 -10 -14 -15 -32 -12 -5 0
-8 -5 -8 -13 0 -8 -6 -16 -14 -19 -10 -4 -12 0 -8 16 5 19 3 19 -22 -6 -27
-27 -43 -36 -31 -17 3 6 -1 10 -9 10 -9 0 -16 -5 -16 -11 0 -5 -4 -7 -10 -4
-5 3 -10 1 -10 -5 0 -7 -7 -10 -15 -6 -8 3 -14 2 -14 -2 4 -22 -3 -33 -16 -28
-9 3 -15 0 -15 -9 0 -8 -4 -15 -10 -15 -5 0 -10 -7 -10 -16 0 -8 -4 -13 -9
-10 -9 6 -25 -22 -22 -39 1 -5 -6 -1 -15 10 -16 20 -16 20 -9 -4 5 -16 4 -21
-4 -17 -6 4 -11 2 -11 -4 0 -6 -3 -9 -7 -7 -5 2 -18 -6 -31 -19 -12 -13 -20
-24 -16 -24 4 0 -5 -12 -19 -26 -15 -15 -24 -30 -21 -35 3 -5 1 -9 -4 -9 -5 0
-13 -8 -16 -17 -9 -24 -41 -80 -56 -97 -6 -9 -9 -20 -5 -26 3 -5 -2 -10 -12
-10 -15 0 -16 -2 -3 -10 10 -6 11 -10 3 -10 -7 0 -13 -7 -13 -15 0 -8 -9 -24
-20 -35 -11 -11 -18 -20 -15 -20 3 0 -3 -10 -15 -22 -11 -12 -26 -34 -32 -50
-7 -15 -16 -28 -19 -28 -3 0 -6 -6 -6 -12 -1 -40 -16 -94 -29 -109 -9 -10 -13
-23 -9 -28 3 -6 1 -11 -4 -11 -6 0 -11 -12 -11 -27 0 -23 -2 -25 -11 -13 -9
12 -10 12 -5 -3 3 -10 6 -23 6 -29 0 -6 6 -8 13 -5 19 7 16 -36 -3 -45 -12 -5
-12 -7 3 -7 9 -1 17 -6 17 -12 0 -5 5 -7 12 -3 8 5 9 2 4 -11 -5 -15 -4 -16 8
-6 8 7 20 10 26 6 14 -8 13 -35 -2 -35 -6 0 -8 -3 -4 -7 4 -5 14 1 22 11 10
14 14 16 14 5 0 -12 2 -12 10 1 8 13 10 12 10 -2 0 -17 19 -18 250 -18 284 0
259 -7 323 92 21 31 43 63 50 70 7 7 33 38 58 69 24 31 90 110 146 177 126
148 174 215 282 394 57 93 97 148 204 276 109 130 150 210 149 290 0 59 -8
137 -18 184 -3 15 8 70 26 133 34 115 35 137 7 141 -9 1 -15 -1 -12 -6z
m-1458 -1772 c-3 -7 -5 -2 -5 12 0 14 2 19 5 13 2 -7 2 -19 0 -25z"/>
<path d="M7105 1642 c-3 -18 -11 -32 -16 -32 -13 0 -7 -32 9 -48 6 -7 12 -22
12 -32 0 -14 5 -18 17 -13 11 4 12 8 5 11 -20 6 -13 25 7 19 16 -4 19 1 19 29
0 19 -4 34 -9 34 -5 0 -9 6 -9 13 0 7 -6 22 -14 32 -13 18 -14 17 -21 -13z"/>
<path d="M7146 1511 c-17 -6 -17 -8 -4 -14 10 -3 19 0 22 9 3 8 4 14 3 13 -1
0 -11 -4 -21 -8z"/>
<path d="M7155 1340 c4 -6 11 -8 16 -5 14 9 11 15 -7 15 -8 0 -12 -5 -9 -10z"/>
<path d="M7051 1264 c0 -11 3 -14 6 -6 3 7 2 16 -1 19 -3 4 -6 -2 -5 -13z"/>
<path d="M3448 1223 c6 -2 18 -2 25 0 6 3 1 5 -13 5 -14 0 -19 -2 -12 -5z"/>
<path d="M7004 1191 c4 -5 1 -11 -6 -13 -7 -3 -3 -7 10 -10 19 -5 20 -4 11 13
-5 10 -12 19 -15 19 -3 0 -3 -4 0 -9z"/>
<path d="M3214 928 c0 -16 46 -65 46 -49 0 8 5 8 20 -1 11 -7 20 -18 20 -25 0
-7 7 -13 16 -13 8 0 13 -3 11 -7 -3 -5 5 -9 18 -9 18 -1 21 2 17 19 -3 12 -7
16 -10 9 -2 -6 -8 -12 -14 -12 -6 0 -8 7 -5 14 4 9 -2 17 -14 21 -10 4 -19 12
-19 18 0 7 -4 6 -10 -3 -8 -13 -10 -12 -10 3 0 12 -8 17 -27 18 -25 0 -26 1
-8 9 11 5 15 9 8 9 -6 1 -18 3 -26 6 -7 3 -13 0 -13 -7z"/>
<path d="M3716 507 c3 -10 9 -15 12 -12 3 3 0 11 -7 18 -10 9 -11 8 -5 -6z"/>
<path d="M3675 460 c-3 -5 -1 -10 4 -10 6 0 11 5 11 10 0 6 -2 10 -4 10 -3 0
-8 -4 -11 -10z"/>
<path d="M3594 378 c-4 -6 5 -21 22 -36 44 -37 268 -180 274 -175 3 3 -4 11
-15 19 -11 7 -35 26 -53 41 -18 16 -38 33 -45 38 -36 31 -135 104 -154 113
-17 9 -24 9 -29 0z"/>
<path d="M4427 362 c-9 -13 43 -64 58 -58 21 8 19 27 -2 19 -10 -3 -15 -2 -10
2 4 5 0 17 -10 27 -17 19 -29 23 -36 10z"/>
<path d="M4200 240 c0 -5 5 -10 11 -10 5 0 7 5 4 10 -3 6 -8 10 -11 10 -2 0
-4 -4 -4 -10z"/>
<path d="M4230 211 c0 -5 14 -19 30 -31 17 -12 30 -19 30 -16 0 3 9 -3 20 -14
11 -11 28 -20 37 -20 14 0 12 4 -7 17 -14 10 -38 30 -55 45 -30 28 -55 36 -55
19z"/>
<path d="M3480 155 c0 -11 45 -55 56 -55 7 0 14 -4 16 -8 2 -4 20 -21 41 -36
41 -32 67 -27 27 5 -39 31 -140 99 -140 94z"/>
<path d="M3910 151 c0 -6 4 -13 10 -16 6 -3 7 1 4 9 -7 18 -14 21 -14 7z"/>
<path d="M4360 116 c0 -10 71 -58 77 -52 10 10 -38 56 -59 56 -10 0 -18 -2
-18 -4z"/>
<path d="M2830 20 c0 -15 6 -20 25 -20 14 0 25 3 25 8 -1 30 -50 43 -50 12z"/>
<path d="M6040 30 c0 -5 5 -10 10 -10 6 0 10 5 10 10 0 6 -4 10 -10 10 -5 0
-10 -4 -10 -10z"/>
<path d="M3650 21 c0 -5 7 -12 16 -15 14 -5 15 -4 4 9 -14 17 -20 19 -20 6z"/>
<path d="M4092 18 c2 -6 10 -14 16 -16 7 -2 10 2 6 12 -7 18 -28 22 -22 4z"/>
</g>
</svg>
